  0
SECTION
  2
HEADER
  9
$ACADVER
  1
AC1024
  9
$ACADMAINTVER
 70
6
  9
$DWGCODEPAGE
  3
ANSI_1252
  9
$INSBASE
 10
0.0
 20
0.0
 30
0.0
  9
$EXTMIN
 10
1e+20
 20
1e+20
 30
1e+20
  9
$EXTMAX
 10
-1e+20
 20
-1e+20
 30
-1e+20
  9
$LIMMIN
 10
0.0
 20
0.0
  9
$LIMMAX
 10
420.0
 20
297.0
  9
$ORTHOMODE
 70
0
  9
$REGENMODE
 70
1
  9
$FILLMODE
 70
1
  9
$QTEXTMODE
 70
0
  9
$MIRRTEXT
 70
1
  9
$LTSCALE
 40
1.0
  9
$ATTMODE
 70
1
  9
$TEXTSIZE
 40
2.5
  9
$TRACEWID
 40
1.0
  9
$TEXTSTYLE
  7
Standard
  9
$CLAYER
  8
0
  9
$CELTYPE
  6
ByLayer
  9
$CECOLOR
 62
256
  9
$CELTSCALE
 40
1.0
  9
$DISPSILH
 70
0
  9
$DIMSCALE
 40
1.0
  9
$DIMASZ
 40
2.5
  9
$DIMEXO
 40
0.625
  9
$DIMDLI
 40
3.75
  9
$DIMRND
 40
0.0
  9
$DIMDLE
 40
0.0
  9
$DIMEXE
 40
1.25
  9
$DIMTP
 40
0.0
  9
$DIMTM
 40
0.0
  9
$DIMTXT
 40
2.5
  9
$DIMCEN
 40
2.5
  9
$DIMTSZ
 40
0.0
  9
$DIMTOL
 70
0
  9
$DIMLIM
 70
0
  9
$DIMTIH
 70
0
  9
$DIMTOH
 70
0
  9
$DIMSE1
 70
0
  9
$DIMSE2
 70
0
  9
$DIMTAD
 70
1
  9
$DIMZIN
 70
8
  9
$DIMBLK
  1

  9
$DIMASO
 70
1
  9
$DIMSHO
 70
1
  9
$DIMPOST
  1

  9
$DIMAPOST
  1

  9
$DIMALT
 70
0
  9
$DIMALTD
 70
3
  9
$DIMALTF
 40
0.03937007874
  9
$DIMLFAC
 40
1.0
  9
$DIMTOFL
 70
1
  9
$DIMTVP
 40
0.0
  9
$DIMTIX
 70
0
  9
$DIMSOXD
 70
0
  9
$DIMSAH
 70
0
  9
$DIMBLK1
  1

  9
$DIMBLK2
  1

  9
$DIMSTYLE
  2
ISO-25
  9
$DIMCLRD
 70
0
  9
$DIMCLRE
 70
0
  9
$DIMCLRT
 70
0
  9
$DIMTFAC
 40
1.0
  9
$DIMGAP
 40
0.625
  9
$DIMJUST
 70
0
  9
$DIMSD1
 70
0
  9
$DIMSD2
 70
0
  9
$DIMTOLJ
 70
0
  9
$DIMTZIN
 70
8
  9
$DIMALTZ
 70
0
  9
$DIMALTTZ
 70
0
  9
$DIMUPT
 70
0
  9
$DIMDEC
 70
2
  9
$DIMTDEC
 70
2
  9
$DIMALTU
 70
2
  9
$DIMALTTD
 70
3
  9
$DIMTXSTY
  7
Standard
  9
$DIMAUNIT
 70
0
  9
$DIMADEC
 70
0
  9
$DIMALTRND
 40
0.0
  9
$DIMAZIN
 70
0
  9
$DIMDSEP
 70
44
  9
$DIMATFIT
 70
3
  9
$DIMFRAC
 70
0
  9
$DIMLDRBLK
  1

  9
$DIMLUNIT
 70
2
  9
$DIMLWD
 70
-2
  9
$DIMLWE
 70
-2
  9
$DIMTMOVE
 70
0
  9
$DIMFXL
 40
1.0
  9
$DIMFXLON
 70
0
  9
$DIMJOGANG
 40
0.785398163397
  9
$DIMTFILL
 70
0
  9
$DIMTFILLCLR
 70
0
  9
$DIMARCSYM
 70
0
  9
$DIMLTYPE
  6

  9
$DIMLTEX1
  6

  9
$DIMLTEX2
  6

  9
$DIMTXTDIRECTION
 70
0
  9
$LUNITS
 70
2
  9
$LUPREC
 70
4
  9
$SKETCHINC
 40
1.0
  9
$FILLETRAD
 40
10.0
  9
$AUNITS
 70
0
  9
$AUPREC
 70
2
  9
$MENU
  1
.
  9
$ELEVATION
 40
0.0
  9
$PELEVATION
 40
0.0
  9
$THICKNESS
 40
0.0
  9
$LIMCHECK
 70
0
  9
$CHAMFERA
 40
0.0
  9
$CHAMFERB
 40
0.0
  9
$CHAMFERC
 40
0.0
  9
$CHAMFERD
 40
0.0
  9
$SKPOLY
 70
0
  9
$TDCREATE
 40
2451545.0
  9
$TDUCREATE
 40
2451545.0
  9
$TDUPDATE
 40
2451545.0
  9
$TDUUPDATE
 40
2451545.0
  9
$TDINDWG
 40
0.0
  9
$TDUSRTIMER
 40
0.0
  9
$USRTIMER
 70
1
  9
$ANGBASE
 50
0.0
  9
$ANGDIR
 70
0
  9
$PDMODE
 70
0
  9
$PDSIZE
 40
0.0
  9
$PLINEWID
 40
0.0
  9
$SPLFRAME
 70
0
  9
$SPLINETYPE
 70
6
  9
$SPLINESEGS
 70
8
  9
$HANDSEED
  5
1A2
  9
$SURFTAB1
 70
6
  9
$SURFTAB2
 70
6
  9
$SURFTYPE
 70
6
  9
$SURFU
 70
6
  9
$SURFV
 70
6
  9
$UCSBASE
  2

  9
$UCSNAME
  2

  9
$UCSORG
 10
0.0
 20
0.0
 30
0.0
  9
$UCSXDIR
 10
1.0
 20
0.0
 30
0.0
  9
$UCSYDIR
 10
0.0
 20
1.0
 30
0.0
  9
$UCSORTHOREF
  2

  9
$UCSORTHOVIEW
 70
0
  9
$UCSORGTOP
 10
0.0
 20
0.0
 30
0.0
  9
$UCSORGBOTTOM
 10
0.0
 20
0.0
 30
0.0
  9
$UCSORGLEFT
 10
0.0
 20
0.0
 30
0.0
  9
$UCSORGRIGHT
 10
0.0
 20
0.0
 30
0.0
  9
$UCSORGFRONT
 10
0.0
 20
0.0
 30
0.0
  9
$UCSORGBACK
 10
0.0
 20
0.0
 30
0.0
  9
$PUCSBASE
  2

  9
$PUCSNAME
  2

  9
$PUCSORG
 10
0.0
 20
0.0
 30
0.0
  9
$PUCSXDIR
 10
1.0
 20
0.0
 30
0.0
  9
$PUCSYDIR
 10
0.0
 20
1.0
 30
0.0
  9
$PUCSORTHOREF
  2

  9
$PUCSORTHOVIEW
 70
0
  9
$PUCSORGTOP
 10
0.0
 20
0.0
 30
0.0
  9
$PUCSORGBOTTOM
 10
0.0
 20
0.0
 30
0.0
  9
$PUCSORGLEFT
 10
0.0
 20
0.0
 30
0.0
  9
$PUCSORGRIGHT
 10
0.0
 20
0.0
 30
0.0
  9
$PUCSORGFRONT
 10
0.0
 20
0.0
 30
0.0
  9
$PUCSORGBACK
 10
0.0
 20
0.0
 30
0.0
  9
$USERI1
 70
0
  9
$USERI2
 70
0
  9
$USERI3
 70
0
  9
$USERI4
 70
0
  9
$USERI5
 70
0
  9
$USERR1
 40
0.0
  9
$USERR2
 40
0.0
  9
$USERR3
 40
0.0
  9
$USERR4
 40
0.0
  9
$USERR5
 40
0.0
  9
$WORLDVIEW
 70
1
  9
$SHADEDGE
 70
3
  9
$SHADEDIF
 70
70
  9
$TILEMODE
 70
1
  9
$MAXACTVP
 70
64
  9
$PINSBASE
 10
0.0
 20
0.0
 30
0.0
  9
$PLIMCHECK
 70
0
  9
$PEXTMIN
 10
1e+20
 20
1e+20
 30
1e+20
  9
$PEXTMAX
 10
-1e+20
 20
-1e+20
 30
-1e+20
  9
$PLIMMIN
 10
0.0
 20
0.0
  9
$PLIMMAX
 10
420.0
 20
297.0
  9
$UNITMODE
 70
0
  9
$VISRETAIN
 70
1
  9
$PLINEGEN
 70
0
  9
$PSLTSCALE
 70
1
  9
$TREEDEPTH
 70
3020
  9
$CMLSTYLE
  2
Standard
  9
$CMLJUST
 70
0
  9
$CMLSCALE
 40
20.0
  9
$PROXYGRAPHICS
 70
1
  9
$MEASUREMENT
 70
1
  9
$CELWEIGHT
370
-1
  9
$ENDCAPS
280
0
  9
$JOINSTYLE
280
0
  9
$LWDISPLAY
290
0
  9
$INSUNITS
 70
4
  9
$HYPERLINKBASE
  1

  9
$XEDIT
290
1
  9
$CEPSNTYPE
380
0
  9
$PSTYLEMODE
290
1
  9
$FINGERPRINTGUID
  2
{00000000-0000-0000-0000-000000000000}
  9
$VERSIONGUID
  2
{00000000-0000-0000-0000-000000000000}
  9
$EXTNAMES
290
1
  9
$PSVPSCALE
 40
0.0
  9
$OLESTARTUP
290
0
  9
$SORTENTS
280
127
  9
$INDEXCTL
280
0
  9
$HIDETEXT
280
1
  9
$XCLIPFRAME
280
1
  9
$HALOGAP
280
0
  9
$OBSCOLOR
 70
257
  9
$OBSLTYPE
280
0
  9
$INTERSECTIONDISPLAY
280
0
  9
$INTERSECTIONCOLOR
 70
257
  9
$DIMASSOC
280
2
  9
$CAMERADISPLAY
290
0
  9
$LENSLENGTH
 40
50.0
  9
$CAMERAHEIGHT
 40
0.0
  9
$STEPSPERSEC
 40
24.0
  9
$STEPSIZE
 40
100.0
  9
$3DDWFPREC
 40
2.0
  9
$PSOLWIDTH
 40
0.005
  9
$PSOLHEIGHT
 40
0.08
  9
$LOFTANG1
 40
1.570796326795
  9
$LOFTANG2
 40
1.570796326795
  9
$LOFTMAG1
 40
0.0
  9
$LOFTMAG2
 40
0.0
  9
$LOFTPARAM
 70
7
  9
$LOFTNORMALS
280
1
  9
$LATITUDE
 40
37.795
  9
$LONGITUDE
 40
-122.394
  9
$NORTHDIRECTION
 40
0.0
  9
$TIMEZONE
 70
-8000
  9
$LIGHTGLYPHDISPLAY
280
1
  9
$TILEMODELIGHTSYNCH
280
1
  9
$CMATERIAL
347
20
  9
$SOLIDHIST
280
0
  9
$SHOWHIST
280
1
  9
$DWFFRAME
280
2
  9
$DGNFRAME
280
2
  9
$REALWORLDSCALE
290
1
  9
$INTERFERECOLOR
 62
256
  9
$CSHADOW
280
0
  9
$SHADOWPLANELOCATION
 40
0.0
  0
ENDSEC
  0
SECTION
  2
CLASSES
  0
CLASS
  1
ACDBDICTIONARYWDFLT
  2
AcDbDictionaryWithDefault
  3
ObjectDBX Classes
 90
0
 91
0
280
0
281
0
  0
CLASS
  1
SUN
  2
AcDbSun
  3
SCENEOE
 90
1153
 91
0
280
0
281
0
  0
CLASS
  1
VISUALSTYLE
  2
AcDbVisualStyle
  3
ObjectDBX Classes
 90
4095
 91
0
280
0
281
0
  0
CLASS
  1
MATERIAL
  2
AcDbMaterial
  3
ObjectDBX Classes
 90
1153
 91
0
280
0
281
0
  0
CLASS
  1
SCALE
  2
AcDbScale
  3
ObjectDBX Classes
 90
1153
 91
0
280
0
281
0
  0
CLASS
  1
TABLESTYLE
  2
AcDbTableStyle
  3
ObjectDBX Classes
 90
4095
 91
0
280
0
281
0
  0
CLASS
  1
MLEADERSTYLE
  2
AcDbMLeaderStyle
  3
ACDB_MLEADERSTYLE_CLASS
 90
4095
 91
0
280
0
281
0
  0
CLASS
  1
DICTIONARYVAR
  2
AcDbDictionaryVar
  3
ObjectDBX Classes
 90
0
 91
0
280
0
281
0
  0
CLASS
  1
CELLSTYLEMAP
  2
AcDbCellStyleMap
  3
ObjectDBX Classes
 90
1152
 91
0
280
0
281
0
  0
CLASS
  1
MENTALRAYRENDERSETTINGS
  2
AcDbMentalRayRenderSettings
  3
SCENEOE
 90
1024
 91
0
280
0
281
0
  0
CLASS
  1
ACDBDETAILVIEWSTYLE
  2
AcDbDetailViewStyle
  3
ObjectDBX Classes
 90
1025
 91
0
280
0
281
0
  0
CLASS
  1
ACDBSECTIONVIEWSTYLE
  2
AcDbSectionViewStyle
  3
ObjectDBX Classes
 90
1025
 91
0
280
0
281
0
  0
CLASS
  1
RASTERVARIABLES
  2
AcDbRasterVariables
  3
ISM
 90
0
 91
0
280
0
281
0
  0
CLASS
  1
LAYOUT
  2
AcDbLayout
  3
ObjectDBX Classes
 90
0
 91
0
280
0
281
0
  0
CLASS
  1
ACDBPLACEHOLDER
  2
AcDbPlaceHolder
  3
ObjectDBX Classes
 90
0
 91
0
280
0
281
0
  0
ENDSEC
  0
SECTION
  2
TABLES
  0
TABLE
  2
VPORT
  5
8
330
0
100
AcDbSymbolTable
 70
1
  0
VPORT
  5
23
330
8
100
AcDbSymbolTableRecord
100
AcDbViewportTableRecord
  2
*Active
 70
0
 10
0.0
 20
0.0
 11
1.0
 21
1.0
 12
0.0
 22
0.0
 13
0.0
 23
0.0
 14
0.5
 24
0.5
 15
0.5
 25
0.5
 16
0.0
 26
0.0
 36
1.0
 17
0.0
 27
0.0
 37
0.0
 40
1000.0
 41
1.34
 42
50.0
 43
0.0
 44
0.0
 50
0.0
 51
0.0
 71
0
 72
1000
 73
1
 74
3
 75
0
 76
0
 77
0
 78
0
281
0
 65
0
146
0.0
  0
ENDTAB
  0
TABLE
  2
LTYPE
  5
2
330
0
100
AcDbSymbolTable
 70
3
  0
LTYPE
  5
24
330
2
100
AcDbSymbolTableRecord
100
AcDbLinetypeTableRecord
  2
ByBlock
 70
0
  3

 72
65
 73
0
 40
0.0
  0
LTYPE
  5
25
330
2
100
AcDbSymbolTableRecord
100
AcDbLinetypeTableRecord
  2
ByLayer
 70
0
  3

 72
65
 73
0
 40
0.0
  0
LTYPE
  5
26
330
2
100
AcDbSymbolTableRecord
100
AcDbLinetypeTableRecord
  2
Continuous
 70
0
  3

 72
65
 73
0
 40
0.0
  0
ENDTAB
  0
TABLE
  2
LAYER
  5
1
330
0
100
AcDbSymbolTable
 70
2
  0
LAYER
  5
27
330
1
100
AcDbSymbolTableRecord
100
AcDbLayerTableRecord
  2
0
 70
0
 62
7
  6
Continuous
370
-3
390
13
347
21
  0
LAYER
  5
28
330
1
100
AcDbSymbolTableRecord
100
AcDbLayerTableRecord
  2
Defpoints
 70
0
 62
7
  6
Continuous
290
0
370
-3
390
13
347
21
  0
ENDTAB
  0
TABLE
  2
STYLE
  5
5
330
0
100
AcDbSymbolTable
 70
1
  0
STYLE
  5
29
330
5
100
AcDbSymbolTableRecord
100
AcDbTextStyleTableRecord
  2
Standard
 70
0
 40
0.0
 41
1.0
 50
0.0
 71
0
 42
2.5
  3
txt
  4

  0
ENDTAB
  0
TABLE
  2
VIEW
  5
7
330
0
100
AcDbSymbolTable
 70
0
  0
ENDTAB
  0
TABLE
  2
UCS
  5
6
330
0
100
AcDbSymbolTable
 70
0
  0
ENDTAB
  0
TABLE
  2
APPID
  5
3
330
0
100
AcDbSymbolTable
 70
3
  0
APPID
  5
2A
330
3
100
AcDbSymbolTableRecord
100
AcDbRegAppTableRecord
  2
ACAD
 70
0
  0
APPID
  5
19F
330
3
100
AcDbSymbolTableRecord
100
AcDbRegAppTableRecord
  2
HATCHBACKGROUNDCOLOR
 70
0
  0
APPID
  5
1A0
330
3
100
AcDbSymbolTableRecord
100
AcDbRegAppTableRecord
  2
EZDXF
 70
0
  0
ENDTAB
  0
TABLE
  2
DIMSTYLE
  5
4
330
0
100
AcDbSymbolTable
 70
1
100
AcDbDimStyleTable
  0
DIMSTYLE
105
2B
330
4
100
AcDbSymbolTableRecord
100
AcDbDimStyleTableRecord
  2
Standard
 70
0
 40
1.0
 41
2.5
 42
0.625
 43
3.75
 44
1.25
 45
0.0
 46
0.0
 47
0.0
 48
0.0
 49
2.5
140
2.5
141
2.5
142
0.0
143
0.03937007874
144
1.0
145
0.0
146
1.0
147
0.625
148
0.0
 69
0
 70
0
 71
0
 72
0
 73
0
 74
0
 75
0
 76
0
 77
1
 78
8
 79
3
170
0
171
3
172
1
173
0
174
0
175
0
176
0
177
0
178
0
179
2
271
2
272
2
273
2
274
3
275
0
276
0
277
2
278
44
279
0
280
0
281
0
282
0
283
0
284
8
285
0
286
0
288
0
289
3
290
0
371
-2
372
-2
  0
ENDTAB
  0
TABLE
  2
BLOCK_RECORD
  5
9
330
0
100
AcDbSymbolTable
 70
2
  0
BLOCK_RECORD
  5
17
330
9
100
AcDbSymbolTableRecord
100
AcDbBlockTableRecord
  2
*Model_Space
340
1A
 70
0
280
1
281
0
  0
BLOCK_RECORD
  5
1B
330
9
100
AcDbSymbolTableRecord
100
AcDbBlockTableRecord
  2
*Paper_Space
340
1E
 70
0
280
1
281
0
  0
ENDTAB
  0
ENDSEC
  0
SECTION
  2
BLOCKS
  0
BLOCK
  5
18
330
17
100
AcDbEntity
  8
0
100
AcDbBlockBegin
  2
*Model_Space
 70
0
 10
0.0
 20
0.0
 30
0.0
  3
*Model_Space
  1

  0
ENDBLK
  5
19
330
17
100
AcDbEntity
  8
0
100
AcDbBlockEnd
  0
BLOCK
  5
1C
330
1B
100
AcDbEntity
  8
0
100
AcDbBlockBegin
  2
*Paper_Space
 70
0
 10
0.0
 20
0.0
 30
0.0
  3
*Paper_Space
  1

  0
ENDBLK
  5
1D
330
1B
100
AcDbEntity
  8
0
100
AcDbBlockEnd
  0
ENDSEC
  0
SECTION
  2
ENTITIES
  0
LINE
  5
2F
330
17
100
AcDbEntity
  8
0
100
AcDbLine
 10
-15.99999906539916
 20
2.250000000000003
 30
0.0
 11
-15.98078434692477
 21
2.054909677983875
 31
0.0
  0
LINE
  5
30
330
17
100
AcDbEntity
  8
0
100
AcDbLine
 10
-15.98078434692477
 20
2.054909677983875
 30
0.0
 11
-15.92387860235684
 21
1.867316567634913
 31
0.0
  0
LINE
  5
31
330
17
100
AcDbEntity
  8
0
100
AcDbLine
 10
-15.92387860235684
 20
1.867316567634913
 30
0.0
 11
-15.83146868754599
 21
1.694429766980401
 31
0.0
  0
LINE
  5
32
330
17
100
AcDbEntity
  8
0
100
AcDbLine
 10
-15.83146868754599
 20
1.694429766980401
 30
0.0
 11
-15.70710586369435
 21
1.542893218813456
 31
0.0
  0
LINE
  5
33
330
17
100
AcDbEntity
  8
0
100
AcDbLine
 10
-15.70710586369435
 20
1.542893218813456
 30
0.0
 11
-15.55556932437904
 21
1.418530387697458
 31
0.0
  0
LINE
  5
34
330
17
100
AcDbEntity
  8
0
100
AcDbLine
 10
-15.55556932437904
 20
1.418530387697458
 30
0.0
 11
-15.38268253382328
 21
1.326120467488717
 31
0.0
  0
LINE
  5
35
330
17
100
AcDbEntity
  8
0
100
AcDbLine
 10
-15.38268253382328
 20
1.326120467488717
 30
0.0
 11
-15.19508943443211
 21
1.269214719596774
 31
0.0
  0
LINE
  5
36
330
17
100
AcDbEntity
  8
0
100
AcDbLine
 10
-15.19508943443211
 20
1.269214719596774
 30
0.0
 11
-14.99999912381171
 21
1.250000000000001
 31
0.0
  0
LINE
  5
37
330
17
100
AcDbEntity
  8
0
100
AcDbLine
 10
-14.99999912381171
 20
1.250000000000001
 30
0.0
 11
14.99999912381172
 21
1.250000000000005
 31
0.0
  0
LINE
  5
38
330
17
100
AcDbEntity
  8
0
100
AcDbLine
 10
15.19508943443212
 20
1.269214719596774
 30
0.0
 11
14.99999912381172
 21
1.250000000000005
 31
0.0
  0
LINE
  5
39
330
17
100
AcDbEntity
  8
0
100
AcDbLine
 10
15.38268253382329
 20
1.326120467488717
 30
0.0
 11
15.19508943443212
 21
1.269214719596774
 31
0.0
  0
LINE
  5
3A
330
17
100
AcDbEntity
  8
0
100
AcDbLine
 10
15.55556932437905
 20
1.418530387697459
 30
0.0
 11
15.38268253382329
 21
1.326120467488717
 31
0.0
  0
LINE
  5
3B
330
17
100
AcDbEntity
  8
0
100
AcDbLine
 10
15.70710586369436
 20
1.542893218813457
 30
0.0
 11
15.55556932437905
 21
1.418530387697459
 31
0.0
  0
LINE
  5
3C
330
17
100
AcDbEntity
  8
0
100
AcDbLine
 10
15.83146868754601
 20
1.694429766980403
 30
0.0
 11
15.70710586369436
 21
1.542893218813457
 31
0.0
  0
LINE
  5
3D
330
17
100
AcDbEntity
  8
0
100
AcDbLine
 10
15.92387860235685
 20
1.867316567634916
 30
0.0
 11
15.83146868754601
 21
1.694429766980403
 31
0.0
  0
LINE
  5
3E
330
17
100
AcDbEntity
  8
0
100
AcDbLine
 10
15.98078434692478
 20
2.054909677983878
 30
0.0
 11
15.92387860235685
 21
1.867316567634916
 31
0.0
  0
LINE
  5
3F
330
17
100
AcDbEntity
  8
0
100
AcDbLine
 10
15.99999906539917
 20
2.250000000000007
 30
0.0
 11
15.98078434692478
 21
2.054909677983878
 31
0.0
  0
LINE
  5
40
330
17
100
AcDbEntity
  8
0
100
AcDbLine
 10
15.99999906539917
 20
2.250000000000007
 30
0.0
 11
15.99999906539917
 21
10.10000000000001
 31
0.0
  0
LINE
  5
41
330
17
100
AcDbEntity
  8
0
100
AcDbLine
 10
15.99999906539917
 20
10.10000000000001
 30
0.0
 11
16.03842850234795
 21
10.49018064403226
 31
0.0
  0
LINE
  5
42
330
17
100
AcDbEntity
  8
0
100
AcDbLine
 10
16.03842850234795
 20
10.49018064403226
 30
0.0
 11
16.15223999148382
 21
10.86536686473018
 31
0.0
  0
LINE
  5
43
330
17
100
AcDbEntity
  8
0
100
AcDbLine
 10
16.15223999148382
 20
10.86536686473018
 30
0.0
 11
16.3370598211055
 21
11.21114046603921
 31
0.0
  0
LINE
  5
44
330
17
100
AcDbEntity
  8
0
100
AcDbLine
 10
16.3370598211055
 20
11.21114046603921
 30
0.0
 11
16.58578546880879
 21
11.5142135623731
 31
0.0
  0
LINE
  5
45
330
17
100
AcDbEntity
  8
0
100
AcDbLine
 10
16.58578546880879
 20
11.5142135623731
 30
0.0
 11
16.88885854743941
 21
11.76293922460509
 31
0.0
  0
LINE
  5
46
330
17
100
AcDbEntity
  8
0
100
AcDbLine
 10
16.88885854743941
 20
11.76293922460509
 30
0.0
 11
17.23463212855091
 21
11.94775906502257
 31
0.0
  0
LINE
  5
47
330
17
100
AcDbEntity
  8
0
100
AcDbLine
 10
17.23463212855091
 20
11.94775906502257
 30
0.0
 11
17.60981832733325
 21
12.06157056080646
 31
0.0
  0
LINE
  5
48
330
17
100
AcDbEntity
  8
0
100
AcDbLine
 10
17.60981832733325
 20
12.06157056080646
 30
0.0
 11
17.99999894857406
 21
12.10000000000001
 31
0.0
  0
LINE
  5
49
330
17
100
AcDbEntity
  8
0
100
AcDbLine
 10
35.49999792635443
 20
12.09999999999999
 30
0.0
 11
17.99999894857406
 21
12.10000000000001
 31
0.0
  0
LINE
  5
4A
330
17
100
AcDbEntity
  8
0
100
AcDbLine
 10
35.89017854759524
 20
12.13842943919356
 30
0.0
 11
35.49999792635443
 21
12.09999999999999
 31
0.0
  0
LINE
  5
4B
330
17
100
AcDbEntity
  8
0
100
AcDbLine
 10
36.26536474637758
 20
12.25224093497744
 30
0.0
 11
35.89017854759524
 21
12.13842943919356
 31
0.0
  0
LINE
  5
4C
330
17
100
AcDbEntity
  8
0
100
AcDbLine
 10
36.61113832748909
 20
12.43706077539492
 30
0.0
 11
36.26536474637758
 21
12.25224093497744
 31
0.0
  0
LINE
  5
4D
330
17
100
AcDbEntity
  8
0
100
AcDbLine
 10
36.91421140611971
 20
12.68578643762692
 30
0.0
 11
36.61113832748909
 21
12.43706077539492
 31
0.0
  0
LINE
  5
4E
330
17
100
AcDbEntity
  8
0
100
AcDbLine
 10
37.16293705382299
 20
12.98885953396081
 30
0.0
 11
36.91421140611971
 21
12.68578643762692
 31
0.0
  0
LINE
  5
4F
330
17
100
AcDbEntity
  8
0
100
AcDbLine
 10
37.34775688344468
 20
13.33463313526983
 30
0.0
 11
37.16293705382299
 21
12.98885953396081
 31
0.0
  0
LINE
  5
50
330
17
100
AcDbEntity
  8
0
100
AcDbLine
 10
37.46156837258055
 20
13.70981935596776
 30
0.0
 11
37.34775688344468
 21
13.33463313526983
 31
0.0
  0
LINE
  5
51
330
17
100
AcDbEntity
  8
0
100
AcDbLine
 10
37.49999780952933
 20
14.10000000000001
 30
0.0
 11
37.46156837258055
 21
13.70981935596776
 31
0.0
  0
LINE
  5
52
330
17
100
AcDbEntity
  8
0
100
AcDbLine
 10
37.49999780952933
 20
14.10000000000001
 30
0.0
 11
37.49999780952932
 21
22.00000000000001
 31
0.0
  0
LINE
  5
53
330
17
100
AcDbEntity
  8
0
100
AcDbLine
 10
37.49999780952932
 20
22.00000000000001
 30
0.0
 11
37.29999782121185
 21
22.00000000000001
 31
0.0
  0
LINE
  5
54
330
17
100
AcDbEntity
  8
0
100
AcDbLine
 10
37.29999782121185
 20
22.00000000000001
 30
0.0
 11
37.10490751059145
 21
22.01921471959678
 31
0.0
  0
LINE
  5
55
330
17
100
AcDbEntity
  8
0
100
AcDbLine
 10
37.10490751059145
 20
22.01921471959678
 30
0.0
 11
36.91731441120028
 21
22.07612046748872
 31
0.0
  0
LINE
  5
56
330
17
100
AcDbEntity
  8
0
100
AcDbLine
 10
36.91731441120028
 20
22.07612046748872
 30
0.0
 11
36.74442762064452
 21
22.16853038769746
 31
0.0
  0
LINE
  5
57
330
17
100
AcDbEntity
  8
0
100
AcDbLine
 10
36.74442762064452
 20
22.16853038769746
 30
0.0
 11
36.59289108132922
 21
22.29289321881346
 31
0.0
  0
LINE
  5
58
330
17
100
AcDbEntity
  8
0
100
AcDbLine
 10
36.59289108132922
 20
22.29289321881346
 30
0.0
 11
36.46852825747757
 21
22.4444297669804
 31
0.0
  0
LINE
  5
59
330
17
100
AcDbEntity
  8
0
100
AcDbLine
 10
36.46852825747757
 20
22.4444297669804
 30
0.0
 11
36.37611834266673
 21
22.6173165676349
 31
0.0
  0
LINE
  5
5A
330
17
100
AcDbEntity
  8
0
100
AcDbLine
 10
36.37611834266673
 20
22.6173165676349
 30
0.0
 11
36.31921259809879
 21
22.80490967798387
 31
0.0
  0
LINE
  5
5B
330
17
100
AcDbEntity
  8
0
100
AcDbLine
 10
36.31921259809879
 20
22.80490967798387
 30
0.0
 11
36.2999978796244
 21
22.99999999999999
 31
0.0
  0
LINE
  5
5C
330
17
100
AcDbEntity
  8
0
100
AcDbLine
 10
36.2999978796244
 20
22.99999999999999
 30
0.0
 11
36.2999978796244
 21
41.0
 31
0.0
  0
LINE
  5
5D
330
17
100
AcDbEntity
  8
0
100
AcDbLine
 10
36.28078316115001
 20
41.19509032201612
 30
0.0
 11
36.2999978796244
 21
41.0
 31
0.0
  0
LINE
  5
5E
330
17
100
AcDbEntity
  8
0
100
AcDbLine
 10
36.22387741658208
 20
41.38268343236509
 30
0.0
 11
36.28078316115001
 21
41.19509032201612
 31
0.0
  0
LINE
  5
5F
330
17
100
AcDbEntity
  8
0
100
AcDbLine
 10
36.13146750177123
 20
41.55557023301961
 30
0.0
 11
36.22387741658208
 21
41.38268343236509
 31
0.0
  0
LINE
  5
60
330
17
100
AcDbEntity
  8
0
100
AcDbLine
 10
36.00710467791959
 20
41.70710678118655
 30
0.0
 11
36.13146750177123
 21
41.55557023301961
 31
0.0
  0
LINE
  5
61
330
17
100
AcDbEntity
  8
0
100
AcDbLine
 10
35.85556813860428
 20
41.83146961230256
 30
0.0
 11
36.00710467791959
 21
41.70710678118655
 31
0.0
  0
LINE
  5
62
330
17
100
AcDbEntity
  8
0
100
AcDbLine
 10
35.68268134804853
 20
41.9238795325113
 30
0.0
 11
35.85556813860428
 21
41.83146961230256
 31
0.0
  0
LINE
  5
63
330
17
100
AcDbEntity
  8
0
100
AcDbLine
 10
35.49508824865736
 20
41.98078528040324
 30
0.0
 11
35.68268134804853
 21
41.9238795325113
 31
0.0
  0
LINE
  5
64
330
17
100
AcDbEntity
  8
0
100
AcDbLine
 10
35.29999793803695
 20
42.00000000000001
 30
0.0
 11
35.49508824865736
 21
41.98078528040324
 31
0.0
  0
LINE
  5
65
330
17
100
AcDbEntity
  8
0
100
AcDbLine
 10
35.29999793803695
 20
42.00000000000001
 30
0.0
 11
12.102287938043
 21
42.00000000000001
 31
0.0
  0
LINE
  5
66
330
17
100
AcDbEntity
  8
0
100
AcDbLine
 10
11.798041183435
 20
41.97672302093553
 30
0.0
 11
12.102287938043
 21
42.00000000000001
 31
0.0
  0
LINE
  5
67
330
17
100
AcDbEntity
  8
0
100
AcDbLine
 10
11.50087637416444
 20
41.90743390149646
 30
0.0
 11
11.798041183435
 21
41.97672302093553
 31
0.0
  0
LINE
  5
68
330
17
100
AcDbEntity
  8
0
100
AcDbLine
 10
11.21771060927541
 20
41.79374548306538
 30
0.0
 11
11.50087637416444
 21
41.90743390149646
 31
0.0
  0
LINE
  5
69
330
17
100
AcDbEntity
  8
0
100
AcDbLine
 10
10.95513513234903
 20
41.63830408857798
 30
0.0
 11
11.21771060927541
 21
41.79374548306538
 31
0.0
  0
LINE
  5
6A
330
17
100
AcDbEntity
  8
0
100
AcDbLine
 10
10.71926190726454
 20
41.4447279241195
 30
0.0
 11
10.95513513234903
 21
41.63830408857798
 31
0.0
  0
LINE
  5
6B
330
17
100
AcDbEntity
  8
0
100
AcDbLine
 10
10.51558135014411
 20
41.21752285801743
 30
0.0
 11
10.71926190726454
 21
41.4447279241195
 31
0.0
  0
LINE
  5
6C
330
17
100
AcDbEntity
  8
0
100
AcDbLine
 10
10.34883452905167
 20
40.96197753783876
 30
0.0
 11
10.51558135014411
 21
41.21752285801743
 31
0.0
  0
LINE
  5
6D
330
17
100
AcDbEntity
  8
0
100
AcDbLine
 10
10.22290280625087
 20
40.68404028665132
 30
0.0
 11
10.34883452905167
 21
40.96197753783876
 31
0.0
  0
LINE
  5
6E
330
17
100
AcDbEntity
  8
0
100
AcDbLine
 10
10.22290280625087
 20
40.68404028665132
 30
0.0
 11
7.905111163548071
 21
34.3159597133487
 31
0.0
  0
LINE
  5
6F
330
17
100
AcDbEntity
  8
0
100
AcDbLine
 10
7.905111163548071
 20
34.3159597133487
 30
0.0
 11
7.779179440747267
 21
34.03802246216126
 31
0.0
  0
LINE
  5
70
330
17
100
AcDbEntity
  8
0
100
AcDbLine
 10
7.779179440747267
 20
34.03802246216126
 30
0.0
 11
7.612432619654832
 21
33.7824771419826
 31
0.0
  0
LINE
  5
71
330
17
100
AcDbEntity
  8
0
100
AcDbLine
 10
7.612432619654832
 20
33.7824771419826
 30
0.0
 11
7.408752062534405
 21
33.55527207588052
 31
0.0
  0
LINE
  5
72
330
17
100
AcDbEntity
  8
0
100
AcDbLine
 10
7.408752062534405
 20
33.55527207588052
 30
0.0
 11
7.172878837449918
 21
33.36169591142205
 31
0.0
  0
LINE
  5
73
330
17
100
AcDbEntity
  8
0
100
AcDbLine
 10
7.172878837449918
 20
33.36169591142205
 30
0.0
 11
6.910303360523535
 21
33.20625451693466
 31
0.0
  0
LINE
  5
74
330
17
100
AcDbEntity
  8
0
100
AcDbLine
 10
6.910303360523535
 20
33.20625451693466
 30
0.0
 11
6.627137595634515
 21
33.09256609850358
 31
0.0
  0
LINE
  5
75
330
17
100
AcDbEntity
  8
0
100
AcDbLine
 10
6.627137595634515
 20
33.09256609850358
 30
0.0
 11
6.32997278636396
 21
33.02327697906451
 31
0.0
  0
LINE
  5
76
330
17
100
AcDbEntity
  8
0
100
AcDbLine
 10
6.32997278636396
 20
33.02327697906451
 30
0.0
 11
6.025726031755957
 21
33.00000000000002
 31
0.0
  0
LINE
  5
77
330
17
100
AcDbEntity
  8
0
100
AcDbLine
 10
6.025726031755957
 20
33.00000000000002
 30
0.0
 11
-6.025726031755954
 21
33.00000000000002
 31
0.0
  0
LINE
  5
78
330
17
100
AcDbEntity
  8
0
100
AcDbLine
 10
-6.329972786363956
 20
33.02327697906451
 30
0.0
 11
-6.025726031755954
 21
33.00000000000002
 31
0.0
  0
LINE
  5
79
330
17
100
AcDbEntity
  8
0
100
AcDbLine
 10
-6.627137595634511
 20
33.09256609850358
 30
0.0
 11
-6.329972786363956
 21
33.02327697906451
 31
0.0
  0
LINE
  5
7A
330
17
100
AcDbEntity
  8
0
100
AcDbLine
 10
-6.910303360523531
 20
33.20625451693466
 30
0.0
 11
-6.627137595634511
 21
33.09256609850358
 31
0.0
  0
LINE
  5
7B
330
17
100
AcDbEntity
  8
0
100
AcDbLine
 10
-7.172878837449914
 20
33.36169591142205
 30
0.0
 11
-6.910303360523531
 21
33.20625451693466
 31
0.0
  0
LINE
  5
7C
330
17
100
AcDbEntity
  8
0
100
AcDbLine
 10
-7.408752062534402
 20
33.55527207588052
 30
0.0
 11
-7.172878837449914
 21
33.36169591142205
 31
0.0
  0
LINE
  5
7D
330
17
100
AcDbEntity
  8
0
100
AcDbLine
 10
-7.612432619654828
 20
33.7824771419826
 30
0.0
 11
-7.408752062534402
 21
33.55527207588052
 31
0.0
  0
LINE
  5
7E
330
17
100
AcDbEntity
  8
0
100
AcDbLine
 10
-7.779179440747263
 20
34.03802246216126
 30
0.0
 11
-7.612432619654828
 21
33.7824771419826
 31
0.0
  0
LINE
  5
7F
330
17
100
AcDbEntity
  8
0
100
AcDbLine
 10
-7.905111163548068
 20
34.3159597133487
 30
0.0
 11
-7.779179440747263
 21
34.03802246216126
 31
0.0
  0
LINE
  5
80
330
17
100
AcDbEntity
  8
0
100
AcDbLine
 10
-10.22290280625087
 20
40.68404028665132
 30
0.0
 11
-7.905111163548068
 21
34.3159597133487
 31
0.0
  0
LINE
  5
81
330
17
100
AcDbEntity
  8
0
100
AcDbLine
 10
-10.22290280625087
 20
40.68404028665132
 30
0.0
 11
-10.34883452905167
 21
40.96197753783876
 31
0.0
  0
LINE
  5
82
330
17
100
AcDbEntity
  8
0
100
AcDbLine
 10
-10.34883452905167
 20
40.96197753783876
 30
0.0
 11
-10.51558135014411
 21
41.21752285801743
 31
0.0
  0
LINE
  5
83
330
17
100
AcDbEntity
  8
0
100
AcDbLine
 10
-10.51558135014411
 20
41.21752285801743
 30
0.0
 11
-10.71926190726454
 21
41.4447279241195
 31
0.0
  0
LINE
  5
84
330
17
100
AcDbEntity
  8
0
100
AcDbLine
 10
-10.71926190726454
 20
41.4447279241195
 30
0.0
 11
-10.95513513234903
 21
41.63830408857798
 31
0.0
  0
LINE
  5
85
330
17
100
AcDbEntity
  8
0
100
AcDbLine
 10
-10.95513513234903
 20
41.63830408857798
 30
0.0
 11
-11.21771060927542
 21
41.79374548306538
 31
0.0
  0
LINE
  5
86
330
17
100
AcDbEntity
  8
0
100
AcDbLine
 10
-11.21771060927542
 20
41.79374548306538
 30
0.0
 11
-11.50087637416444
 21
41.90743390149646
 31
0.0
  0
LINE
  5
87
330
17
100
AcDbEntity
  8
0
100
AcDbLine
 10
-11.50087637416444
 20
41.90743390149646
 30
0.0
 11
-11.798041183435
 21
41.97672302093553
 31
0.0
  0
LINE
  5
88
330
17
100
AcDbEntity
  8
0
100
AcDbLine
 10
-11.798041183435
 20
41.97672302093553
 30
0.0
 11
-12.10228793804301
 21
42.00000000000001
 31
0.0
  0
LINE
  5
89
330
17
100
AcDbEntity
  8
0
100
AcDbLine
 10
-35.29999793803695
 20
42.00000000000001
 30
0.0
 11
-12.10228793804301
 21
42.00000000000001
 31
0.0
  0
LINE
  5
8A
330
17
100
AcDbEntity
  8
0
100
AcDbLine
 10
-35.29999793803695
 20
42.00000000000001
 30
0.0
 11
-35.49508824865736
 21
41.98078528040324
 31
0.0
  0
LINE
  5
8B
330
17
100
AcDbEntity
  8
0
100
AcDbLine
 10
-35.49508824865736
 20
41.98078528040324
 30
0.0
 11
-35.68268134804853
 21
41.92387953251129
 31
0.0
  0
LINE
  5
8C
330
17
100
AcDbEntity
  8
0
100
AcDbLine
 10
-35.68268134804853
 20
41.92387953251129
 30
0.0
 11
-35.85556813860428
 21
41.83146961230255
 31
0.0
  0
LINE
  5
8D
330
17
100
AcDbEntity
  8
0
100
AcDbLine
 10
-35.85556813860428
 20
41.83146961230255
 30
0.0
 11
-36.00710467791959
 21
41.70710678118655
 31
0.0
  0
LINE
  5
8E
330
17
100
AcDbEntity
  8
0
100
AcDbLine
 10
-36.00710467791959
 20
41.70710678118655
 30
0.0
 11
-36.13146750177123
 21
41.5555702330196
 31
0.0
  0
LINE
  5
8F
330
17
100
AcDbEntity
  8
0
100
AcDbLine
 10
-36.13146750177123
 20
41.5555702330196
 30
0.0
 11
-36.22387741658208
 21
41.38268343236508
 31
0.0
  0
LINE
  5
90
330
17
100
AcDbEntity
  8
0
100
AcDbLine
 10
-36.22387741658208
 20
41.38268343236508
 30
0.0
 11
-36.28078316115001
 21
41.19509032201611
 31
0.0
  0
LINE
  5
91
330
17
100
AcDbEntity
  8
0
100
AcDbLine
 10
-36.28078316115001
 20
41.19509032201611
 30
0.0
 11
-36.2999978796244
 21
40.99999999999999
 31
0.0
  0
LINE
  5
92
330
17
100
AcDbEntity
  8
0
100
AcDbLine
 10
-36.2999978796244
 20
22.99999999999998
 30
0.0
 11
-36.2999978796244
 21
40.99999999999999
 31
0.0
  0
LINE
  5
93
330
17
100
AcDbEntity
  8
0
100
AcDbLine
 10
-36.31921259809879
 20
22.80490967798385
 30
0.0
 11
-36.2999978796244
 21
22.99999999999998
 31
0.0
  0
LINE
  5
94
330
17
100
AcDbEntity
  8
0
100
AcDbLine
 10
-36.37611834266673
 20
22.61731656763489
 30
0.0
 11
-36.31921259809879
 21
22.80490967798385
 31
0.0
  0
LINE
  5
95
330
17
100
AcDbEntity
  8
0
100
AcDbLine
 10
-36.46852825747757
 20
22.44442976698039
 30
0.0
 11
-36.37611834266673
 21
22.61731656763489
 31
0.0
  0
LINE
  5
96
330
17
100
AcDbEntity
  8
0
100
AcDbLine
 10
-36.59289108132922
 20
22.29289321881344
 30
0.0
 11
-36.46852825747757
 21
22.44442976698039
 31
0.0
  0
LINE
  5
97
330
17
100
AcDbEntity
  8
0
100
AcDbLine
 10
-36.74442762064452
 20
22.16853038769745
 30
0.0
 11
-36.59289108132922
 21
22.29289321881344
 31
0.0
  0
LINE
  5
98
330
17
100
AcDbEntity
  8
0
100
AcDbLine
 10
-36.91731441120028
 20
22.07612046748871
 30
0.0
 11
-36.74442762064452
 21
22.16853038769745
 31
0.0
  0
LINE
  5
99
330
17
100
AcDbEntity
  8
0
100
AcDbLine
 10
-37.10490751059145
 20
22.01921471959677
 30
0.0
 11
-36.91731441120028
 21
22.07612046748871
 31
0.0
  0
LINE
  5
9A
330
17
100
AcDbEntity
  8
0
100
AcDbLine
 10
-37.29999782121185
 20
22.0
 30
0.0
 11
-37.10490751059145
 21
22.01921471959677
 31
0.0
  0
LINE
  5
9B
330
17
100
AcDbEntity
  8
0
100
AcDbLine
 10
-37.49999780952932
 20
22.0
 30
0.0
 11
-37.29999782121185
 21
22.0
 31
0.0
  0
LINE
  5
9C
330
17
100
AcDbEntity
  8
0
100
AcDbLine
 10
-37.49999780952931
 20
14.1
 30
0.0
 11
-37.49999780952932
 21
22.0
 31
0.0
  0
LINE
  5
9D
330
17
100
AcDbEntity
  8
0
100
AcDbLine
 10
-37.49999780952931
 20
14.1
 30
0.0
 11
-37.46156837258054
 21
13.70981935596775
 31
0.0
  0
LINE
  5
9E
330
17
100
AcDbEntity
  8
0
100
AcDbLine
 10
-37.46156837258054
 20
13.70981935596775
 30
0.0
 11
-37.34775688344467
 21
13.33463313526983
 31
0.0
  0
LINE
  5
9F
330
17
100
AcDbEntity
  8
0
100
AcDbLine
 10
-37.34775688344467
 20
13.33463313526983
 30
0.0
 11
-37.16293705382298
 21
12.9888595339608
 31
0.0
  0
LINE
  5
A0
330
17
100
AcDbEntity
  8
0
100
AcDbLine
 10
-37.16293705382298
 20
12.9888595339608
 30
0.0
 11
-36.91421140611969
 21
12.68578643762691
 31
0.0
  0
LINE
  5
A1
330
17
100
AcDbEntity
  8
0
100
AcDbLine
 10
-36.91421140611969
 20
12.68578643762691
 30
0.0
 11
-36.61113832748907
 21
12.43706077539492
 31
0.0
  0
LINE
  5
A2
330
17
100
AcDbEntity
  8
0
100
AcDbLine
 10
-36.61113832748907
 20
12.43706077539492
 30
0.0
 11
-36.26536474637756
 21
12.25224093497743
 31
0.0
  0
LINE
  5
A3
330
17
100
AcDbEntity
  8
0
100
AcDbLine
 10
-36.26536474637756
 20
12.25224093497743
 30
0.0
 11
-35.89017854759523
 21
12.13842943919355
 31
0.0
  0
LINE
  5
A4
330
17
100
AcDbEntity
  8
0
100
AcDbLine
 10
-35.89017854759523
 20
12.13842943919355
 30
0.0
 11
-35.49999792635442
 21
12.1
 31
0.0
  0
LINE
  5
A5
330
17
100
AcDbEntity
  8
0
100
AcDbLine
 10
-35.49999792635442
 20
12.1
 30
0.0
 11
-17.99999894857406
 21
12.1
 31
0.0
  0
LINE
  5
A6
330
17
100
AcDbEntity
  8
0
100
AcDbLine
 10
-17.60981832733325
 20
12.06157056080646
 30
0.0
 11
-17.99999894857406
 21
12.1
 31
0.0
  0
LINE
  5
A7
330
17
100
AcDbEntity
  8
0
100
AcDbLine
 10
-17.23463212855091
 20
11.94775906502257
 30
0.0
 11
-17.60981832733325
 21
12.06157056080646
 31
0.0
  0
LINE
  5
A8
330
17
100
AcDbEntity
  8
0
100
AcDbLine
 10
-16.8888585474394
 20
11.76293922460509
 30
0.0
 11
-17.23463212855091
 21
11.94775906502257
 31
0.0
  0
LINE
  5
A9
330
17
100
AcDbEntity
  8
0
100
AcDbLine
 10
-16.58578546880878
 20
11.51421356237309
 30
0.0
 11
-16.8888585474394
 21
11.76293922460509
 31
0.0
  0
LINE
  5
AA
330
17
100
AcDbEntity
  8
0
100
AcDbLine
 10
-16.33705982110549
 20
11.2111404660392
 30
0.0
 11
-16.58578546880878
 21
11.51421356237309
 31
0.0
  0
LINE
  5
AB
330
17
100
AcDbEntity
  8
0
100
AcDbLine
 10
-16.15223999148381
 20
10.86536686473018
 30
0.0
 11
-16.33705982110549
 21
11.2111404660392
 31
0.0
  0
LINE
  5
AC
330
17
100
AcDbEntity
  8
0
100
AcDbLine
 10
-16.03842850234794
 20
10.49018064403226
 30
0.0
 11
-16.15223999148381
 21
10.86536686473018
 31
0.0
  0
LINE
  5
AD
330
17
100
AcDbEntity
  8
0
100
AcDbLine
 10
-15.99999906539916
 20
10.1
 30
0.0
 11
-16.03842850234794
 21
10.49018064403226
 31
0.0
  0
LINE
  5
AE
330
17
100
AcDbEntity
  8
0
100
AcDbLine
 10
-15.99999906539916
 20
2.250000000000003
 30
0.0
 11
-15.99999906539916
 21
10.1
 31
0.0
  0
LINE
  5
AF
330
17
100
AcDbEntity
  8
0
100
AcDbLine
 10
39.99999766349797
 20
-5.600000000000001
 30
0.0
 11
39.99999766349797
 21
-26.8
 31
0.0
  0
LINE
  5
B0
330
17
100
AcDbEntity
  8
0
100
AcDbLine
 10
39.99999766349797
 20
-5.600000000000001
 30
0.0
 11
38.13397277249725
 21
-5.09999999999999
 31
0.0
  0
LINE
  5
B1
330
17
100
AcDbEntity
  8
0
100
AcDbLine
 10
38.13397277249725
 20
-5.09999999999999
 30
0.0
 11
27.99999836444856
 21
-5.099999999999993
 31
0.0
  0
LINE
  5
B2
330
17
100
AcDbEntity
  8
0
100
AcDbLine
 10
27.99999836444856
 20
-8.599999999999994
 30
0.0
 11
27.99999836444856
 21
-5.099999999999993
 31
0.0
  0
LINE
  5
B3
330
17
100
AcDbEntity
  8
0
100
AcDbLine
 10
27.99999836444856
 20
-8.599999999999994
 30
0.0
 11
19.49999886095524
 21
-8.599999999999998
 31
0.0
  0
LINE
  5
B4
330
17
100
AcDbEntity
  8
0
100
AcDbLine
 10
19.49999886095524
 20
8.599999999999998
 30
0.0
 11
19.49999886095524
 21
-8.599999999999998
 31
0.0
  0
LINE
  5
B5
330
17
100
AcDbEntity
  8
0
100
AcDbLine
 10
27.99999836444856
 20
8.599999999999994
 30
0.0
 11
19.49999886095524
 21
8.599999999999998
 31
0.0
  0
LINE
  5
B6
330
17
100
AcDbEntity
  8
0
100
AcDbLine
 10
27.99999836444856
 20
8.599999999999994
 30
0.0
 11
27.99999836444856
 21
5.099999999999993
 31
0.0
  0
LINE
  5
B7
330
17
100
AcDbEntity
  8
0
100
AcDbLine
 10
38.13397277249725
 20
5.09999999999999
 30
0.0
 11
27.99999836444856
 21
5.099999999999993
 31
0.0
  0
LINE
  5
B8
330
17
100
AcDbEntity
  8
0
100
AcDbLine
 10
39.99999766349797
 20
5.600000000000001
 30
0.0
 11
38.13397277249725
 21
5.09999999999999
 31
0.0
  0
LINE
  5
B9
330
17
100
AcDbEntity
  8
0
100
AcDbLine
 10
39.99999766349797
 20
5.600000000000001
 30
0.0
 11
39.99999766349795
 21
26.80000000000002
 31
0.0
  0
LINE
  5
BA
330
17
100
AcDbEntity
  8
0
100
AcDbLine
 10
39.99999766349795
 20
26.80000000000002
 30
0.0
 11
38.79999773359301
 21
26.80000000000002
 31
0.0
  0
LINE
  5
BB
330
17
100
AcDbEntity
  8
0
100
AcDbLine
 10
38.799997733593
 20
42.00000000000001
 30
0.0
 11
38.79999773359301
 21
26.80000000000002
 31
0.0
  0
LINE
  5
BC
330
17
100
AcDbEntity
  8
0
100
AcDbLine
 10
39.99999766349795
 20
42.00000000000001
 30
0.0
 11
38.799997733593
 21
42.00000000000001
 31
0.0
  0
LINE
  5
BD
330
17
100
AcDbEntity
  8
0
100
AcDbLine
 10
39.99999766349795
 20
42.00000000000001
 30
0.0
 11
39.99999766349798
 21
45.49999999999999
 31
0.0
  0
LINE
  5
BE
330
17
100
AcDbEntity
  8
0
100
AcDbLine
 10
39.96156822654917
 20
45.89018064403224
 30
0.0
 11
39.99999766349798
 21
45.49999999999999
 31
0.0
  0
LINE
  5
BF
330
17
100
AcDbEntity
  8
0
100
AcDbLine
 10
39.84775673741331
 20
46.26536686473015
 30
0.0
 11
39.96156822654917
 21
45.89018064403224
 31
0.0
  0
LINE
  5
C0
330
17
100
AcDbEntity
  8
0
100
AcDbLine
 10
39.66293690779163
 20
46.61114046603919
 30
0.0
 11
39.84775673741331
 21
46.26536686473015
 31
0.0
  0
LINE
  5
C1
330
17
100
AcDbEntity
  8
0
100
AcDbLine
 10
39.41421126008834
 20
46.91421356237308
 30
0.0
 11
39.66293690779163
 21
46.61114046603919
 31
0.0
  0
LINE
  5
C2
330
17
100
AcDbEntity
  8
0
100
AcDbLine
 10
39.11113818145772
 20
47.16293922460507
 30
0.0
 11
39.41421126008834
 21
46.91421356237308
 31
0.0
  0
LINE
  5
C3
330
17
100
AcDbEntity
  8
0
100
AcDbLine
 10
38.76536460034623
 20
47.34775906502256
 30
0.0
 11
39.11113818145772
 21
47.16293922460507
 31
0.0
  0
LINE
  5
C4
330
17
100
AcDbEntity
  8
0
100
AcDbLine
 10
38.39017840156389
 20
47.46157056080645
 30
0.0
 11
38.76536460034623
 21
47.34775906502256
 31
0.0
  0
LINE
  5
C5
330
17
100
AcDbEntity
  8
0
100
AcDbLine
 10
37.99999778032308
 20
47.49999999999999
 30
0.0
 11
38.39017840156389
 21
47.46157056080645
 31
0.0
  0
LINE
  5
C6
330
17
100
AcDbEntity
  8
0
100
AcDbLine
 10
37.99999778032308
 20
47.49999999999999
 30
0.0
 11
8.251146702844618
 21
47.5
 31
0.0
  0
LINE
  5
C7
330
17
100
AcDbEntity
  8
0
100
AcDbLine
 10
7.946899948236608
 20
47.47672302093556
 30
0.0
 11
8.251146702844618
 21
47.5
 31
0.0
  0
LINE
  5
C8
330
17
100
AcDbEntity
  8
0
100
AcDbLine
 10
7.649735138966046
 20
47.40743390149648
 30
0.0
 11
7.946899948236608
 21
47.47672302093556
 31
0.0
  0
LINE
  5
C9
330
17
100
AcDbEntity
  8
0
100
AcDbLine
 10
7.366569374077021
 20
47.2937454830654
 30
0.0
 11
7.649735138966046
 21
47.40743390149648
 31
0.0
  0
LINE
  5
CA
330
17
100
AcDbEntity
  8
0
100
AcDbLine
 10
7.103993897150631
 20
47.138304088578
 30
0.0
 11
7.366569374077021
 21
47.2937454830654
 31
0.0
  0
LINE
  5
CB
330
17
100
AcDbEntity
  8
0
100
AcDbLine
 10
6.868120672066138
 20
46.94472792411953
 30
0.0
 11
7.103993897150631
 21
47.138304088578
 31
0.0
  0
LINE
  5
CC
330
17
100
AcDbEntity
  8
0
100
AcDbLine
 10
6.664440114945705
 20
46.71752285801745
 30
0.0
 11
6.868120672066138
 21
46.94472792411953
 31
0.0
  0
LINE
  5
CD
330
17
100
AcDbEntity
  8
0
100
AcDbLine
 10
6.497693293853266
 20
46.46197753783878
 30
0.0
 11
6.664440114945705
 21
46.71752285801745
 31
0.0
  0
LINE
  5
CE
330
17
100
AcDbEntity
  8
0
100
AcDbLine
 10
6.371761571052458
 20
46.18404028665134
 30
0.0
 11
6.497693293853266
 21
46.46197753783878
 31
0.0
  0
LINE
  5
CF
330
17
100
AcDbEntity
  8
0
100
AcDbLine
 10
6.371761571052458
 20
46.18404028665134
 30
0.0
 11
3.574999791175121
 21
38.50000000000001
 31
0.0
  0
LINE
  5
D0
330
17
100
AcDbEntity
  8
0
100
AcDbLine
 10
3.574999791175121
 20
38.50000000000001
 30
0.0
 11
-3.574999791175119
 21
38.50000000000001
 31
0.0
  0
LINE
  5
D1
330
17
100
AcDbEntity
  8
0
100
AcDbLine
 10
-6.371761571052458
 20
46.18404028665134
 30
0.0
 11
-3.574999791175119
 21
38.50000000000001
 31
0.0
  0
LINE
  5
D2
330
17
100
AcDbEntity
  8
0
100
AcDbLine
 10
-6.371761571052458
 20
46.18404028665134
 30
0.0
 11
-6.497693293853266
 21
46.46197753783878
 31
0.0
  0
LINE
  5
D3
330
17
100
AcDbEntity
  8
0
100
AcDbLine
 10
-6.497693293853266
 20
46.46197753783878
 30
0.0
 11
-6.664440114945705
 21
46.71752285801745
 31
0.0
  0
LINE
  5
D4
330
17
100
AcDbEntity
  8
0
100
AcDbLine
 10
-6.664440114945705
 20
46.71752285801745
 30
0.0
 11
-6.868120672066138
 21
46.94472792411953
 31
0.0
  0
LINE
  5
D5
330
17
100
AcDbEntity
  8
0
100
AcDbLine
 10
-6.868120672066138
 20
46.94472792411953
 30
0.0
 11
-7.103993897150631
 21
47.138304088578
 31
0.0
  0
LINE
  5
D6
330
17
100
AcDbEntity
  8
0
100
AcDbLine
 10
-7.103993897150631
 20
47.138304088578
 30
0.0
 11
-7.366569374077021
 21
47.2937454830654
 31
0.0
  0
LINE
  5
D7
330
17
100
AcDbEntity
  8
0
100
AcDbLine
 10
-7.366569374077021
 20
47.2937454830654
 30
0.0
 11
-7.649735138966046
 21
47.40743390149648
 31
0.0
  0
LINE
  5
D8
330
17
100
AcDbEntity
  8
0
100
AcDbLine
 10
-7.649735138966046
 20
47.40743390149648
 30
0.0
 11
-7.946899948236608
 21
47.47672302093556
 31
0.0
  0
LINE
  5
D9
330
17
100
AcDbEntity
  8
0
100
AcDbLine
 10
-7.946899948236608
 20
47.47672302093556
 30
0.0
 11
-8.251146702844618
 21
47.5
 31
0.0
  0
LINE
  5
DA
330
17
100
AcDbEntity
  8
0
100
AcDbLine
 10
-37.99999778032306
 20
47.5
 30
0.0
 11
-8.251146702844618
 21
47.5
 31
0.0
  0
LINE
  5
DB
330
17
100
AcDbEntity
  8
0
100
AcDbLine
 10
-37.99999778032306
 20
47.5
 30
0.0
 11
-38.39017840156387
 21
47.46157056080646
 31
0.0
  0
LINE
  5
DC
330
17
100
AcDbEntity
  8
0
100
AcDbLine
 10
-38.39017840156387
 20
47.46157056080646
 30
0.0
 11
-38.7653646003462
 21
47.34775906502257
 31
0.0
  0
LINE
  5
DD
330
17
100
AcDbEntity
  8
0
100
AcDbLine
 10
-38.7653646003462
 20
47.34775906502257
 30
0.0
 11
-39.11113818145771
 21
47.16293922460509
 31
0.0
  0
LINE
  5
DE
330
17
100
AcDbEntity
  8
0
100
AcDbLine
 10
-39.11113818145771
 20
47.16293922460509
 30
0.0
 11
-39.41421126008833
 21
46.91421356237309
 31
0.0
  0
LINE
  5
DF
330
17
100
AcDbEntity
  8
0
100
AcDbLine
 10
-39.41421126008833
 20
46.91421356237309
 30
0.0
 11
-39.66293690779163
 21
46.6111404660392
 31
0.0
  0
LINE
  5
E0
330
17
100
AcDbEntity
  8
0
100
AcDbLine
 10
-39.66293690779163
 20
46.6111404660392
 30
0.0
 11
-39.84775673741331
 21
46.26536686473018
 31
0.0
  0
LINE
  5
E1
330
17
100
AcDbEntity
  8
0
100
AcDbLine
 10
-39.84775673741331
 20
46.26536686473018
 30
0.0
 11
-39.96156822654917
 21
45.89018064403226
 31
0.0
  0
LINE
  5
E2
330
17
100
AcDbEntity
  8
0
100
AcDbLine
 10
-39.96156822654917
 20
45.89018064403226
 30
0.0
 11
-39.99999766349795
 21
45.49999999999999
 31
0.0
  0
LINE
  5
E3
330
17
100
AcDbEntity
  8
0
100
AcDbLine
 10
-39.99999766349795
 20
42.00000000000001
 30
0.0
 11
-39.99999766349795
 21
45.49999999999999
 31
0.0
  0
LINE
  5
E4
330
17
100
AcDbEntity
  8
0
100
AcDbLine
 10
-39.99999766349795
 20
42.00000000000001
 30
0.0
 11
-38.799997733593
 21
42.00000000000001
 31
0.0
  0
LINE
  5
E5
330
17
100
AcDbEntity
  8
0
100
AcDbLine
 10
-38.799997733593
 20
42.00000000000001
 30
0.0
 11
-38.79999773359301
 21
26.80000000000001
 31
0.0
  0
LINE
  5
E6
330
17
100
AcDbEntity
  8
0
100
AcDbLine
 10
-39.99999766349795
 20
26.80000000000001
 30
0.0
 11
-38.79999773359301
 21
26.80000000000001
 31
0.0
  0
LINE
  5
E7
330
17
100
AcDbEntity
  8
0
100
AcDbLine
 10
-39.99999766349795
 20
5.599999999999992
 30
0.0
 11
-39.99999766349795
 21
26.80000000000001
 31
0.0
  0
LINE
  5
E8
330
17
100
AcDbEntity
  8
0
100
AcDbLine
 10
-39.99999766349795
 20
5.599999999999992
 30
0.0
 11
-38.13397277249723
 21
5.09999999999998
 31
0.0
  0
LINE
  5
E9
330
17
100
AcDbEntity
  8
0
100
AcDbLine
 10
-38.13397277249723
 20
5.09999999999998
 30
0.0
 11
-27.99999836444855
 21
5.099999999999986
 31
0.0
  0
LINE
  5
EA
330
17
100
AcDbEntity
  8
0
100
AcDbLine
 10
-27.99999836444855
 20
8.599999999999987
 30
0.0
 11
-27.99999836444855
 21
5.099999999999986
 31
0.0
  0
LINE
  5
EB
330
17
100
AcDbEntity
  8
0
100
AcDbLine
 10
-27.99999836444855
 20
8.599999999999987
 30
0.0
 11
-19.49999886095523
 21
8.599999999999993
 31
0.0
  0
LINE
  5
EC
330
17
100
AcDbEntity
  8
0
100
AcDbLine
 10
-19.49999886095523
 20
8.599999999999993
 30
0.0
 11
-19.49999886095523
 21
-8.600000000000003
 31
0.0
  0
LINE
  5
ED
330
17
100
AcDbEntity
  8
0
100
AcDbLine
 10
-27.99999836444855
 20
-8.600000000000001
 30
0.0
 11
-19.49999886095523
 21
-8.600000000000003
 31
0.0
  0
LINE
  5
EE
330
17
100
AcDbEntity
  8
0
100
AcDbLine
 10
-27.99999836444855
 20
-8.600000000000001
 30
0.0
 11
-27.99999836444855
 21
-5.1
 31
0.0
  0
LINE
  5
EF
330
17
100
AcDbEntity
  8
0
100
AcDbLine
 10
-38.13397277249723
 20
-5.1
 30
0.0
 11
-27.99999836444855
 21
-5.1
 31
0.0
  0
LINE
  5
F0
330
17
100
AcDbEntity
  8
0
100
AcDbLine
 10
-39.99999766349795
 20
-5.600000000000011
 30
0.0
 11
-38.13397277249723
 21
-5.1
 31
0.0
  0
LINE
  5
F1
330
17
100
AcDbEntity
  8
0
100
AcDbLine
 10
-39.99999766349795
 20
-5.600000000000011
 30
0.0
 11
-39.99999766349795
 21
-26.80000000000001
 31
0.0
  0
LINE
  5
F2
330
17
100
AcDbEntity
  8
0
100
AcDbLine
 10
-39.99999766349795
 20
-26.80000000000001
 30
0.0
 11
-38.79999773359301
 21
-26.80000000000001
 31
0.0
  0
LINE
  5
F3
330
17
100
AcDbEntity
  8
0
100
AcDbLine
 10
-38.799997733593
 20
-42.00000000000001
 30
0.0
 11
-38.79999773359301
 21
-26.80000000000001
 31
0.0
  0
LINE
  5
F4
330
17
100
AcDbEntity
  8
0
100
AcDbLine
 10
-39.99999766349795
 20
-42.00000000000001
 30
0.0
 11
-38.799997733593
 21
-42.00000000000001
 31
0.0
  0
LINE
  5
F5
330
17
100
AcDbEntity
  8
0
100
AcDbLine
 10
-39.99999766349795
 20
-42.00000000000001
 30
0.0
 11
-39.99999766349795
 21
-45.49999999999999
 31
0.0
  0
LINE
  5
F6
330
17
100
AcDbEntity
  8
0
100
AcDbLine
 10
-39.96156822654917
 20
-45.89018064403226
 30
0.0
 11
-39.99999766349795
 21
-45.49999999999999
 31
0.0
  0
LINE
  5
F7
330
17
100
AcDbEntity
  8
0
100
AcDbLine
 10
-39.84775673741331
 20
-46.26536686473018
 30
0.0
 11
-39.96156822654917
 21
-45.89018064403226
 31
0.0
  0
LINE
  5
F8
330
17
100
AcDbEntity
  8
0
100
AcDbLine
 10
-39.66293690779163
 20
-46.6111404660392
 30
0.0
 11
-39.84775673741331
 21
-46.26536686473018
 31
0.0
  0
LINE
  5
F9
330
17
100
AcDbEntity
  8
0
100
AcDbLine
 10
-39.41421126008833
 20
-46.91421356237309
 30
0.0
 11
-39.66293690779163
 21
-46.6111404660392
 31
0.0
  0
LINE
  5
FA
330
17
100
AcDbEntity
  8
0
100
AcDbLine
 10
-39.11113818145771
 20
-47.16293922460509
 30
0.0
 11
-39.41421126008833
 21
-46.91421356237309
 31
0.0
  0
LINE
  5
FB
330
17
100
AcDbEntity
  8
0
100
AcDbLine
 10
-38.7653646003462
 20
-47.34775906502257
 30
0.0
 11
-39.11113818145771
 21
-47.16293922460509
 31
0.0
  0
LINE
  5
FC
330
17
100
AcDbEntity
  8
0
100
AcDbLine
 10
-38.39017840156387
 20
-47.46157056080646
 30
0.0
 11
-38.7653646003462
 21
-47.34775906502257
 31
0.0
  0
LINE
  5
FD
330
17
100
AcDbEntity
  8
0
100
AcDbLine
 10
-37.99999778032306
 20
-47.5
 30
0.0
 11
-38.39017840156387
 21
-47.46157056080646
 31
0.0
  0
LINE
  5
FE
330
17
100
AcDbEntity
  8
0
100
AcDbLine
 10
-37.99999778032306
 20
-47.5
 30
0.0
 11
-8.251146702844618
 21
-47.5
 31
0.0
  0
LINE
  5
FF
330
17
100
AcDbEntity
  8
0
100
AcDbLine
 10
-7.946899948236603
 20
-47.47672302093557
 30
0.0
 11
-8.251146702844618
 21
-47.5
 31
0.0
  0
LINE
  5
100
330
17
100
AcDbEntity
  8
0
100
AcDbLine
 10
-7.649735138966034
 20
-47.4074339014965
 30
0.0
 11
-7.946899948236603
 21
-47.47672302093557
 31
0.0
  0
LINE
  5
101
330
17
100
AcDbEntity
  8
0
100
AcDbLine
 10
-7.366569374077003
 20
-47.29374548306542
 30
0.0
 11
-7.649735138966034
 21
-47.4074339014965
 31
0.0
  0
LINE
  5
102
330
17
100
AcDbEntity
  8
0
100
AcDbLine
 10
-7.103993897150609
 20
-47.13830408857802
 30
0.0
 11
-7.366569374077003
 21
-47.29374548306542
 31
0.0
  0
LINE
  5
103
330
17
100
AcDbEntity
  8
0
100
AcDbLine
 10
-6.868120672066114
 20
-46.94472792411954
 30
0.0
 11
-7.103993897150609
 21
-47.13830408857802
 31
0.0
  0
LINE
  5
104
330
17
100
AcDbEntity
  8
0
100
AcDbLine
 10
-6.664440114945678
 20
-46.71752285801746
 30
0.0
 11
-6.868120672066114
 21
-46.94472792411954
 31
0.0
  0
LINE
  5
105
330
17
100
AcDbEntity
  8
0
100
AcDbLine
 10
-6.497693293853238
 20
-46.46197753783878
 30
0.0
 11
-6.664440114945678
 21
-46.71752285801746
 31
0.0
  0
LINE
  5
106
330
17
100
AcDbEntity
  8
0
100
AcDbLine
 10
-6.37176157105243
 20
-46.18404028665133
 30
0.0
 11
-6.497693293853238
 21
-46.46197753783878
 31
0.0
  0
LINE
  5
107
330
17
100
AcDbEntity
  8
0
100
AcDbLine
 10
-6.37176157105243
 20
-46.18404028665133
 30
0.0
 11
-3.574999791175118
 21
-38.50000000000001
 31
0.0
  0
LINE
  5
108
330
17
100
AcDbEntity
  8
0
100
AcDbLine
 10
3.574999791175139
 20
-38.50000000000001
 30
0.0
 11
-3.574999791175118
 21
-38.50000000000001
 31
0.0
  0
LINE
  5
109
330
17
100
AcDbEntity
  8
0
100
AcDbLine
 10
6.371761571052458
 20
-46.18404028665134
 30
0.0
 11
3.574999791175139
 21
-38.50000000000001
 31
0.0
  0
LINE
  5
10A
330
17
100
AcDbEntity
  8
0
100
AcDbLine
 10
6.371761571052458
 20
-46.18404028665134
 30
0.0
 11
6.497693293853266
 21
-46.46197753783878
 31
0.0
  0
LINE
  5
10B
330
17
100
AcDbEntity
  8
0
100
AcDbLine
 10
6.497693293853266
 20
-46.46197753783878
 30
0.0
 11
6.664440114945705
 21
-46.71752285801745
 31
0.0
  0
LINE
  5
10C
330
17
100
AcDbEntity
  8
0
100
AcDbLine
 10
6.664440114945705
 20
-46.71752285801745
 30
0.0
 11
6.868120672066138
 21
-46.94472792411953
 31
0.0
  0
LINE
  5
10D
330
17
100
AcDbEntity
  8
0
100
AcDbLine
 10
6.868120672066138
 20
-46.94472792411953
 30
0.0
 11
7.103993897150631
 21
-47.138304088578
 31
0.0
  0
LINE
  5
10E
330
17
100
AcDbEntity
  8
0
100
AcDbLine
 10
7.103993897150631
 20
-47.138304088578
 30
0.0
 11
7.366569374077021
 21
-47.2937454830654
 31
0.0
  0
LINE
  5
10F
330
17
100
AcDbEntity
  8
0
100
AcDbLine
 10
7.366569374077021
 20
-47.2937454830654
 30
0.0
 11
7.649735138966046
 21
-47.40743390149648
 31
0.0
  0
LINE
  5
110
330
17
100
AcDbEntity
  8
0
100
AcDbLine
 10
7.649735138966046
 20
-47.40743390149648
 30
0.0
 11
7.946899948236608
 21
-47.47672302093556
 31
0.0
  0
LINE
  5
111
330
17
100
AcDbEntity
  8
0
100
AcDbLine
 10
7.946899948236608
 20
-47.47672302093556
 30
0.0
 11
8.251146702844618
 21
-47.5
 31
0.0
  0
LINE
  5
112
330
17
100
AcDbEntity
  8
0
100
AcDbLine
 10
37.99999778032308
 20
-47.49999999999999
 30
0.0
 11
8.251146702844618
 21
-47.5
 31
0.0
  0
LINE
  5
113
330
17
100
AcDbEntity
  8
0
100
AcDbLine
 10
37.99999778032308
 20
-47.49999999999999
 30
0.0
 11
38.39017840156389
 21
-47.46157056080645
 31
0.0
  0
LINE
  5
114
330
17
100
AcDbEntity
  8
0
100
AcDbLine
 10
38.39017840156389
 20
-47.46157056080645
 30
0.0
 11
38.76536460034623
 21
-47.34775906502256
 31
0.0
  0
LINE
  5
115
330
17
100
AcDbEntity
  8
0
100
AcDbLine
 10
38.76536460034623
 20
-47.34775906502256
 30
0.0
 11
39.11113818145772
 21
-47.16293922460507
 31
0.0
  0
LINE
  5
116
330
17
100
AcDbEntity
  8
0
100
AcDbLine
 10
39.11113818145772
 20
-47.16293922460507
 30
0.0
 11
39.41421126008834
 21
-46.91421356237308
 31
0.0
  0
LINE
  5
117
330
17
100
AcDbEntity
  8
0
100
AcDbLine
 10
39.41421126008834
 20
-46.91421356237308
 30
0.0
 11
39.66293690779163
 21
-46.61114046603919
 31
0.0
  0
LINE
  5
118
330
17
100
AcDbEntity
  8
0
100
AcDbLine
 10
39.66293690779163
 20
-46.61114046603919
 30
0.0
 11
39.84775673741331
 21
-46.26536686473015
 31
0.0
  0
LINE
  5
119
330
17
100
AcDbEntity
  8
0
100
AcDbLine
 10
39.84775673741331
 20
-46.26536686473015
 30
0.0
 11
39.96156822654917
 21
-45.89018064403224
 31
0.0
  0
LINE
  5
11A
330
17
100
AcDbEntity
  8
0
100
AcDbLine
 10
39.96156822654917
 20
-45.89018064403224
 30
0.0
 11
39.99999766349798
 21
-45.49999999999999
 31
0.0
  0
LINE
  5
11B
330
17
100
AcDbEntity
  8
0
100
AcDbLine
 10
39.99999766349798
 20
-42.0
 30
0.0
 11
39.99999766349798
 21
-45.49999999999999
 31
0.0
  0
LINE
  5
11C
330
17
100
AcDbEntity
  8
0
100
AcDbLine
 10
39.99999766349798
 20
-42.0
 30
0.0
 11
38.79999773359303
 21
-42.00000000000001
 31
0.0
  0
LINE
  5
11D
330
17
100
AcDbEntity
  8
0
100
AcDbLine
 10
38.79999773359303
 20
-42.00000000000001
 30
0.0
 11
38.79999773359303
 21
-26.8
 31
0.0
  0
LINE
  5
11E
330
17
100
AcDbEntity
  8
0
100
AcDbLine
 10
39.99999766349797
 20
-26.8
 30
0.0
 11
38.79999773359303
 21
-26.8
 31
0.0
  0
LINE
  5
11F
330
17
100
AcDbEntity
  8
0
100
AcDbLine
 10
37.49999780952933
 20
-14.10000000000001
 30
0.0
 11
37.49999780952933
 21
-21.99999999999999
 31
0.0
  0
LINE
  5
120
330
17
100
AcDbEntity
  8
0
100
AcDbLine
 10
37.49999780952933
 20
-14.10000000000001
 30
0.0
 11
37.46156837258055
 21
-13.70981935596776
 31
0.0
  0
LINE
  5
121
330
17
100
AcDbEntity
  8
0
100
AcDbLine
 10
37.46156837258055
 20
-13.70981935596776
 30
0.0
 11
37.34775688344468
 21
-13.33463313526983
 31
0.0
  0
LINE
  5
122
330
17
100
AcDbEntity
  8
0
100
AcDbLine
 10
37.34775688344468
 20
-13.33463313526983
 30
0.0
 11
37.16293705382299
 21
-12.98885953396081
 31
0.0
  0
LINE
  5
123
330
17
100
AcDbEntity
  8
0
100
AcDbLine
 10
37.16293705382299
 20
-12.98885953396081
 30
0.0
 11
36.91421140611971
 21
-12.68578643762692
 31
0.0
  0
LINE
  5
124
330
17
100
AcDbEntity
  8
0
100
AcDbLine
 10
36.91421140611971
 20
-12.68578643762692
 30
0.0
 11
36.61113832748909
 21
-12.43706077539492
 31
0.0
  0
LINE
  5
125
330
17
100
AcDbEntity
  8
0
100
AcDbLine
 10
36.61113832748909
 20
-12.43706077539492
 30
0.0
 11
36.26536474637758
 21
-12.25224093497744
 31
0.0
  0
LINE
  5
126
330
17
100
AcDbEntity
  8
0
100
AcDbLine
 10
36.26536474637758
 20
-12.25224093497744
 30
0.0
 11
35.89017854759524
 21
-12.13842943919356
 31
0.0
  0
LINE
  5
127
330
17
100
AcDbEntity
  8
0
100
AcDbLine
 10
35.89017854759524
 20
-12.13842943919356
 30
0.0
 11
35.49999792635443
 21
-12.09999999999999
 31
0.0
  0
LINE
  5
128
330
17
100
AcDbEntity
  8
0
100
AcDbLine
 10
35.49999792635443
 20
-12.09999999999999
 30
0.0
 11
17.99999894857407
 21
-12.1
 31
0.0
  0
LINE
  5
129
330
17
100
AcDbEntity
  8
0
100
AcDbLine
 10
17.60981832733326
 20
-12.06157056080646
 30
0.0
 11
17.99999894857407
 21
-12.1
 31
0.0
  0
LINE
  5
12A
330
17
100
AcDbEntity
  8
0
100
AcDbLine
 10
17.23463212855092
 20
-11.94775906502257
 30
0.0
 11
17.60981832733326
 21
-12.06157056080646
 31
0.0
  0
LINE
  5
12B
330
17
100
AcDbEntity
  8
0
100
AcDbLine
 10
16.88885854743942
 20
-11.76293922460509
 30
0.0
 11
17.23463212855092
 21
-11.94775906502257
 31
0.0
  0
LINE
  5
12C
330
17
100
AcDbEntity
  8
0
100
AcDbLine
 10
16.5857854688088
 20
-11.51421356237309
 30
0.0
 11
16.88885854743942
 21
-11.76293922460509
 31
0.0
  0
LINE
  5
12D
330
17
100
AcDbEntity
  8
0
100
AcDbLine
 10
16.33705982110551
 20
-11.21114046603921
 30
0.0
 11
16.5857854688088
 21
-11.51421356237309
 31
0.0
  0
LINE
  5
12E
330
17
100
AcDbEntity
  8
0
100
AcDbLine
 10
16.15223999148382
 20
-10.86536686473018
 30
0.0
 11
16.33705982110551
 21
-11.21114046603921
 31
0.0
  0
LINE
  5
12F
330
17
100
AcDbEntity
  8
0
100
AcDbLine
 10
16.03842850234795
 20
-10.49018064403226
 30
0.0
 11
16.15223999148382
 21
-10.86536686473018
 31
0.0
  0
LINE
  5
130
330
17
100
AcDbEntity
  8
0
100
AcDbLine
 10
15.99999906539917
 20
-10.10000000000001
 30
0.0
 11
16.03842850234795
 21
-10.49018064403226
 31
0.0
  0
LINE
  5
131
330
17
100
AcDbEntity
  8
0
100
AcDbLine
 10
15.99999906539917
 20
-2.250000000000007
 30
0.0
 11
15.99999906539917
 21
-10.10000000000001
 31
0.0
  0
LINE
  5
132
330
17
100
AcDbEntity
  8
0
100
AcDbLine
 10
15.99999906539917
 20
-2.250000000000007
 30
0.0
 11
15.98078434692478
 21
-2.054909677983878
 31
0.0
  0
LINE
  5
133
330
17
100
AcDbEntity
  8
0
100
AcDbLine
 10
15.98078434692478
 20
-2.054909677983878
 30
0.0
 11
15.92387860235685
 21
-1.867316567634916
 31
0.0
  0
LINE
  5
134
330
17
100
AcDbEntity
  8
0
100
AcDbLine
 10
15.92387860235685
 20
-1.867316567634916
 30
0.0
 11
15.83146868754601
 21
-1.694429766980403
 31
0.0
  0
LINE
  5
135
330
17
100
AcDbEntity
  8
0
100
AcDbLine
 10
15.83146868754601
 20
-1.694429766980403
 30
0.0
 11
15.70710586369436
 21
-1.542893218813457
 31
0.0
  0
LINE
  5
136
330
17
100
AcDbEntity
  8
0
100
AcDbLine
 10
15.70710586369436
 20
-1.542893218813457
 30
0.0
 11
15.55556932437905
 21
-1.418530387697459
 31
0.0
  0
LINE
  5
137
330
17
100
AcDbEntity
  8
0
100
AcDbLine
 10
15.55556932437905
 20
-1.418530387697459
 30
0.0
 11
15.38268253382329
 21
-1.326120467488717
 31
0.0
  0
LINE
  5
138
330
17
100
AcDbEntity
  8
0
100
AcDbLine
 10
15.38268253382329
 20
-1.326120467488717
 30
0.0
 11
15.19508943443212
 21
-1.269214719596774
 31
0.0
  0
LINE
  5
139
330
17
100
AcDbEntity
  8
0
100
AcDbLine
 10
15.19508943443212
 20
-1.269214719596774
 30
0.0
 11
14.99999912381172
 21
-1.250000000000005
 31
0.0
  0
LINE
  5
13A
330
17
100
AcDbEntity
  8
0
100
AcDbLine
 10
-14.99999912381171
 20
-1.250000000000001
 30
0.0
 11
14.99999912381172
 21
-1.250000000000005
 31
0.0
  0
LINE
  5
13B
330
17
100
AcDbEntity
  8
0
100
AcDbLine
 10
-15.19508943443211
 20
-1.269214719596774
 30
0.0
 11
-14.99999912381171
 21
-1.250000000000001
 31
0.0
  0
LINE
  5
13C
330
17
100
AcDbEntity
  8
0
100
AcDbLine
 10
-15.38268253382328
 20
-1.326120467488717
 30
0.0
 11
-15.19508943443211
 21
-1.269214719596774
 31
0.0
  0
LINE
  5
13D
330
17
100
AcDbEntity
  8
0
100
AcDbLine
 10
-15.55556932437904
 20
-1.418530387697458
 30
0.0
 11
-15.38268253382328
 21
-1.326120467488717
 31
0.0
  0
LINE
  5
13E
330
17
100
AcDbEntity
  8
0
100
AcDbLine
 10
-15.70710586369435
 20
-1.542893218813456
 30
0.0
 11
-15.55556932437904
 21
-1.418530387697458
 31
0.0
  0
LINE
  5
13F
330
17
100
AcDbEntity
  8
0
100
AcDbLine
 10
-15.83146868754599
 20
-1.694429766980401
 30
0.0
 11
-15.70710586369435
 21
-1.542893218813456
 31
0.0
  0
LINE
  5
140
330
17
100
AcDbEntity
  8
0
100
AcDbLine
 10
-15.92387860235684
 20
-1.867316567634913
 30
0.0
 11
-15.83146868754599
 21
-1.694429766980401
 31
0.0
  0
LINE
  5
141
330
17
100
AcDbEntity
  8
0
100
AcDbLine
 10
-15.98078434692477
 20
-2.054909677983875
 30
0.0
 11
-15.92387860235684
 21
-1.867316567634913
 31
0.0
  0
LINE
  5
142
330
17
100
AcDbEntity
  8
0
100
AcDbLine
 10
-15.99999906539916
 20
-2.250000000000003
 30
0.0
 11
-15.98078434692477
 21
-2.054909677983875
 31
0.0
  0
LINE
  5
143
330
17
100
AcDbEntity
  8
0
100
AcDbLine
 10
-15.99999906539916
 20
-2.250000000000003
 30
0.0
 11
-15.99999906539916
 21
-10.10000000000001
 31
0.0
  0
LINE
  5
144
330
17
100
AcDbEntity
  8
0
100
AcDbLine
 10
-15.99999906539916
 20
-10.10000000000001
 30
0.0
 11
-16.03842850234794
 21
-10.49018064403226
 31
0.0
  0
LINE
  5
145
330
17
100
AcDbEntity
  8
0
100
AcDbLine
 10
-16.03842850234794
 20
-10.49018064403226
 30
0.0
 11
-16.15223999148381
 21
-10.86536686473019
 31
0.0
  0
LINE
  5
146
330
17
100
AcDbEntity
  8
0
100
AcDbLine
 10
-16.15223999148381
 20
-10.86536686473019
 30
0.0
 11
-16.33705982110549
 21
-11.21114046603921
 31
0.0
  0
LINE
  5
147
330
17
100
AcDbEntity
  8
0
100
AcDbLine
 10
-16.33705982110549
 20
-11.21114046603921
 30
0.0
 11
-16.58578546880878
 21
-11.5142135623731
 31
0.0
  0
LINE
  5
148
330
17
100
AcDbEntity
  8
0
100
AcDbLine
 10
-16.58578546880878
 20
-11.5142135623731
 30
0.0
 11
-16.8888585474394
 21
-11.76293922460509
 31
0.0
  0
LINE
  5
149
330
17
100
AcDbEntity
  8
0
100
AcDbLine
 10
-16.8888585474394
 20
-11.76293922460509
 30
0.0
 11
-17.23463212855091
 21
-11.94775906502258
 31
0.0
  0
LINE
  5
14A
330
17
100
AcDbEntity
  8
0
100
AcDbLine
 10
-17.23463212855091
 20
-11.94775906502258
 30
0.0
 11
-17.60981832733325
 21
-12.06157056080646
 31
0.0
  0
LINE
  5
14B
330
17
100
AcDbEntity
  8
0
100
AcDbLine
 10
-17.60981832733325
 20
-12.06157056080646
 30
0.0
 11
-17.99999894857406
 21
-12.1
 31
0.0
  0
LINE
  5
14C
330
17
100
AcDbEntity
  8
0
100
AcDbLine
 10
-35.49999792635442
 20
-12.1
 30
0.0
 11
-17.99999894857406
 21
-12.1
 31
0.0
  0
LINE
  5
14D
330
17
100
AcDbEntity
  8
0
100
AcDbLine
 10
-35.89017854759523
 20
-12.13842943919355
 30
0.0
 11
-35.49999792635442
 21
-12.1
 31
0.0
  0
LINE
  5
14E
330
17
100
AcDbEntity
  8
0
100
AcDbLine
 10
-36.26536474637756
 20
-12.25224093497743
 30
0.0
 11
-35.89017854759523
 21
-12.13842943919355
 31
0.0
  0
LINE
  5
14F
330
17
100
AcDbEntity
  8
0
100
AcDbLine
 10
-36.61113832748907
 20
-12.43706077539492
 30
0.0
 11
-36.26536474637756
 21
-12.25224093497743
 31
0.0
  0
LINE
  5
150
330
17
100
AcDbEntity
  8
0
100
AcDbLine
 10
-36.91421140611969
 20
-12.68578643762691
 30
0.0
 11
-36.61113832748907
 21
-12.43706077539492
 31
0.0
  0
LINE
  5
151
330
17
100
AcDbEntity
  8
0
100
AcDbLine
 10
-37.16293705382298
 20
-12.9888595339608
 30
0.0
 11
-36.91421140611969
 21
-12.68578643762691
 31
0.0
  0
LINE
  5
152
330
17
100
AcDbEntity
  8
0
100
AcDbLine
 10
-37.34775688344467
 20
-13.33463313526983
 30
0.0
 11
-37.16293705382298
 21
-12.9888595339608
 31
0.0
  0
LINE
  5
153
330
17
100
AcDbEntity
  8
0
100
AcDbLine
 10
-37.46156837258054
 20
-13.70981935596775
 30
0.0
 11
-37.34775688344467
 21
-13.33463313526983
 31
0.0
  0
LINE
  5
154
330
17
100
AcDbEntity
  8
0
100
AcDbLine
 10
-37.49999780952931
 20
-14.1
 30
0.0
 11
-37.46156837258054
 21
-13.70981935596775
 31
0.0
  0
LINE
  5
155
330
17
100
AcDbEntity
  8
0
100
AcDbLine
 10
-37.49999780952931
 20
-14.1
 30
0.0
 11
-37.49999780952932
 21
-22.0
 31
0.0
  0
LINE
  5
156
330
17
100
AcDbEntity
  8
0
100
AcDbLine
 10
-37.49999780952932
 20
-22.0
 30
0.0
 11
-37.29999782121185
 21
-22.0
 31
0.0
  0
LINE
  5
157
330
17
100
AcDbEntity
  8
0
100
AcDbLine
 10
-37.29999782121185
 20
-22.0
 30
0.0
 11
-37.10490751059144
 21
-22.01921471959677
 31
0.0
  0
LINE
  5
158
330
17
100
AcDbEntity
  8
0
100
AcDbLine
 10
-37.10490751059144
 20
-22.01921471959677
 30
0.0
 11
-36.91731441120027
 21
-22.07612046748872
 31
0.0
  0
LINE
  5
159
330
17
100
AcDbEntity
  8
0
100
AcDbLine
 10
-36.91731441120027
 20
-22.07612046748872
 30
0.0
 11
-36.74442762064452
 21
-22.16853038769746
 31
0.0
  0
LINE
  5
15A
330
17
100
AcDbEntity
  8
0
100
AcDbLine
 10
-36.74442762064452
 20
-22.16853038769746
 30
0.0
 11
-36.59289108132921
 21
-22.29289321881346
 31
0.0
  0
LINE
  5
15B
330
17
100
AcDbEntity
  8
0
100
AcDbLine
 10
-36.59289108132921
 20
-22.29289321881346
 30
0.0
 11
-36.46852825747757
 21
-22.4444297669804
 31
0.0
  0
LINE
  5
15C
330
17
100
AcDbEntity
  8
0
100
AcDbLine
 10
-36.46852825747757
 20
-22.4444297669804
 30
0.0
 11
-36.37611834266672
 21
-22.61731656763491
 31
0.0
  0
LINE
  5
15D
330
17
100
AcDbEntity
  8
0
100
AcDbLine
 10
-36.37611834266672
 20
-22.61731656763491
 30
0.0
 11
-36.31921259809879
 21
-22.80490967798387
 31
0.0
  0
LINE
  5
15E
330
17
100
AcDbEntity
  8
0
100
AcDbLine
 10
-36.31921259809879
 20
-22.80490967798387
 30
0.0
 11
-36.29999787962439
 21
-23.0
 31
0.0
  0
LINE
  5
15F
330
17
100
AcDbEntity
  8
0
100
AcDbLine
 10
-36.29999787962439
 20
-23.0
 30
0.0
 11
-36.29999787962437
 21
-41.0
 31
0.0
  0
LINE
  5
160
330
17
100
AcDbEntity
  8
0
100
AcDbLine
 10
-36.28078316115001
 20
-41.19509032201613
 30
0.0
 11
-36.29999787962437
 21
-41.0
 31
0.0
  0
LINE
  5
161
330
17
100
AcDbEntity
  8
0
100
AcDbLine
 10
-36.22387741658207
 20
-41.3826834323651
 30
0.0
 11
-36.28078316115001
 21
-41.19509032201613
 31
0.0
  0
LINE
  5
162
330
17
100
AcDbEntity
  8
0
100
AcDbLine
 10
-36.13146750177123
 20
-41.55557023301961
 30
0.0
 11
-36.22387741658207
 21
-41.3826834323651
 31
0.0
  0
LINE
  5
163
330
17
100
AcDbEntity
  8
0
100
AcDbLine
 10
-36.00710467791958
 20
-41.70710678118655
 30
0.0
 11
-36.13146750177123
 21
-41.55557023301961
 31
0.0
  0
LINE
  5
164
330
17
100
AcDbEntity
  8
0
100
AcDbLine
 10
-35.85556813860427
 20
-41.83146961230256
 30
0.0
 11
-36.00710467791958
 21
-41.70710678118655
 31
0.0
  0
LINE
  5
165
330
17
100
AcDbEntity
  8
0
100
AcDbLine
 10
-35.68268134804852
 20
-41.92387953251129
 30
0.0
 11
-35.85556813860427
 21
-41.83146961230256
 31
0.0
  0
LINE
  5
166
330
17
100
AcDbEntity
  8
0
100
AcDbLine
 10
-35.49508824865736
 20
-41.98078528040324
 30
0.0
 11
-35.68268134804852
 21
-41.92387953251129
 31
0.0
  0
LINE
  5
167
330
17
100
AcDbEntity
  8
0
100
AcDbLine
 10
-35.29999793803695
 20
-42.00000000000001
 30
0.0
 11
-35.49508824865736
 21
-41.98078528040324
 31
0.0
  0
LINE
  5
168
330
17
100
AcDbEntity
  8
0
100
AcDbLine
 10
-35.29999793803695
 20
-42.00000000000001
 30
0.0
 11
-12.10228793804301
 21
-42.00000000000001
 31
0.0
  0
LINE
  5
169
330
17
100
AcDbEntity
  8
0
100
AcDbLine
 10
-11.798041183435
 20
-41.97672302093553
 30
0.0
 11
-12.10228793804301
 21
-42.00000000000001
 31
0.0
  0
LINE
  5
16A
330
17
100
AcDbEntity
  8
0
100
AcDbLine
 10
-11.50087637416444
 20
-41.90743390149646
 30
0.0
 11
-11.798041183435
 21
-41.97672302093553
 31
0.0
  0
LINE
  5
16B
330
17
100
AcDbEntity
  8
0
100
AcDbLine
 10
-11.21771060927542
 20
-41.79374548306538
 30
0.0
 11
-11.50087637416444
 21
-41.90743390149646
 31
0.0
  0
LINE
  5
16C
330
17
100
AcDbEntity
  8
0
100
AcDbLine
 10
-10.95513513234903
 20
-41.63830408857798
 30
0.0
 11
-11.21771060927542
 21
-41.79374548306538
 31
0.0
  0
LINE
  5
16D
330
17
100
AcDbEntity
  8
0
100
AcDbLine
 10
-10.71926190726454
 20
-41.4447279241195
 30
0.0
 11
-10.95513513234903
 21
-41.63830408857798
 31
0.0
  0
LINE
  5
16E
330
17
100
AcDbEntity
  8
0
100
AcDbLine
 10
-10.51558135014411
 20
-41.21752285801743
 30
0.0
 11
-10.71926190726454
 21
-41.4447279241195
 31
0.0
  0
LINE
  5
16F
330
17
100
AcDbEntity
  8
0
100
AcDbLine
 10
-10.34883452905167
 20
-40.96197753783876
 30
0.0
 11
-10.51558135014411
 21
-41.21752285801743
 31
0.0
  0
LINE
  5
170
330
17
100
AcDbEntity
  8
0
100
AcDbLine
 10
-10.22290280625087
 20
-40.68404028665132
 30
0.0
 11
-10.34883452905167
 21
-40.96197753783876
 31
0.0
  0
LINE
  5
171
330
17
100
AcDbEntity
  8
0
100
AcDbLine
 10
-10.22290280625087
 20
-40.68404028665132
 30
0.0
 11
-7.905111163548073
 21
-34.3159597133487
 31
0.0
  0
LINE
  5
172
330
17
100
AcDbEntity
  8
0
100
AcDbLine
 10
-7.905111163548073
 20
-34.3159597133487
 30
0.0
 11
-7.779179440747269
 21
-34.03802246216127
 31
0.0
  0
LINE
  5
173
330
17
100
AcDbEntity
  8
0
100
AcDbLine
 10
-7.779179440747269
 20
-34.03802246216127
 30
0.0
 11
-7.612432619654835
 21
-33.7824771419826
 31
0.0
  0
LINE
  5
174
330
17
100
AcDbEntity
  8
0
100
AcDbLine
 10
-7.612432619654835
 20
-33.7824771419826
 30
0.0
 11
-7.408752062534407
 21
-33.55527207588052
 31
0.0
  0
LINE
  5
175
330
17
100
AcDbEntity
  8
0
100
AcDbLine
 10
-7.408752062534407
 20
-33.55527207588052
 30
0.0
 11
-7.172878837449919
 21
-33.36169591142205
 31
0.0
  0
LINE
  5
176
330
17
100
AcDbEntity
  8
0
100
AcDbLine
 10
-7.172878837449919
 20
-33.36169591142205
 30
0.0
 11
-6.910303360523535
 21
-33.20625451693466
 31
0.0
  0
LINE
  5
177
330
17
100
AcDbEntity
  8
0
100
AcDbLine
 10
-6.910303360523535
 20
-33.20625451693466
 30
0.0
 11
-6.627137595634515
 21
-33.09256609850358
 31
0.0
  0
LINE
  5
178
330
17
100
AcDbEntity
  8
0
100
AcDbLine
 10
-6.627137595634515
 20
-33.09256609850358
 30
0.0
 11
-6.329972786363958
 21
-33.02327697906451
 31
0.0
  0
LINE
  5
179
330
17
100
AcDbEntity
  8
0
100
AcDbLine
 10
-6.329972786363958
 20
-33.02327697906451
 30
0.0
 11
-6.025726031755954
 21
-33.00000000000002
 31
0.0
  0
LINE
  5
17A
330
17
100
AcDbEntity
  8
0
100
AcDbLine
 10
6.025726031755957
 20
-33.00000000000002
 30
0.0
 11
-6.025726031755954
 21
-33.00000000000002
 31
0.0
  0
LINE
  5
17B
330
17
100
AcDbEntity
  8
0
100
AcDbLine
 10
6.32997278636396
 20
-33.02327697906451
 30
0.0
 11
6.025726031755957
 21
-33.00000000000002
 31
0.0
  0
LINE
  5
17C
330
17
100
AcDbEntity
  8
0
100
AcDbLine
 10
6.627137595634515
 20
-33.09256609850358
 30
0.0
 11
6.32997278636396
 21
-33.02327697906451
 31
0.0
  0
LINE
  5
17D
330
17
100
AcDbEntity
  8
0
100
AcDbLine
 10
6.910303360523535
 20
-33.20625451693466
 30
0.0
 11
6.627137595634515
 21
-33.09256609850358
 31
0.0
  0
LINE
  5
17E
330
17
100
AcDbEntity
  8
0
100
AcDbLine
 10
7.172878837449918
 20
-33.36169591142205
 30
0.0
 11
6.910303360523535
 21
-33.20625451693466
 31
0.0
  0
LINE
  5
17F
330
17
100
AcDbEntity
  8
0
100
AcDbLine
 10
7.408752062534405
 20
-33.55527207588052
 30
0.0
 11
7.172878837449918
 21
-33.36169591142205
 31
0.0
  0
LINE
  5
180
330
17
100
AcDbEntity
  8
0
100
AcDbLine
 10
7.612432619654832
 20
-33.7824771419826
 30
0.0
 11
7.408752062534405
 21
-33.55527207588052
 31
0.0
  0
LINE
  5
181
330
17
100
AcDbEntity
  8
0
100
AcDbLine
 10
7.779179440747267
 20
-34.03802246216126
 30
0.0
 11
7.612432619654832
 21
-33.7824771419826
 31
0.0
  0
LINE
  5
182
330
17
100
AcDbEntity
  8
0
100
AcDbLine
 10
7.905111163548071
 20
-34.3159597133487
 30
0.0
 11
7.779179440747267
 21
-34.03802246216126
 31
0.0
  0
LINE
  5
183
330
17
100
AcDbEntity
  8
0
100
AcDbLine
 10
10.22290280625089
 20
-40.68404028665132
 30
0.0
 11
7.905111163548071
 21
-34.3159597133487
 31
0.0
  0
LINE
  5
184
330
17
100
AcDbEntity
  8
0
100
AcDbLine
 10
10.22290280625089
 20
-40.68404028665132
 30
0.0
 11
10.3488345290517
 21
-40.96197753783876
 31
0.0
  0
LINE
  5
185
330
17
100
AcDbEntity
  8
0
100
AcDbLine
 10
10.3488345290517
 20
-40.96197753783876
 30
0.0
 11
10.51558135014413
 21
-41.21752285801743
 31
0.0
  0
LINE
  5
186
330
17
100
AcDbEntity
  8
0
100
AcDbLine
 10
10.51558135014413
 20
-41.21752285801743
 30
0.0
 11
10.71926190726456
 21
-41.4447279241195
 31
0.0
  0
LINE
  5
187
330
17
100
AcDbEntity
  8
0
100
AcDbLine
 10
10.71926190726456
 20
-41.4447279241195
 30
0.0
 11
10.95513513234905
 21
-41.63830408857798
 31
0.0
  0
LINE
  5
188
330
17
100
AcDbEntity
  8
0
100
AcDbLine
 10
10.95513513234905
 20
-41.63830408857798
 30
0.0
 11
11.21771060927544
 21
-41.79374548306538
 31
0.0
  0
LINE
  5
189
330
17
100
AcDbEntity
  8
0
100
AcDbLine
 10
11.21771060927544
 20
-41.79374548306538
 30
0.0
 11
11.50087637416446
 21
-41.90743390149646
 31
0.0
  0
LINE
  5
18A
330
17
100
AcDbEntity
  8
0
100
AcDbLine
 10
11.50087637416446
 20
-41.90743390149646
 30
0.0
 11
11.79804118343502
 21
-41.97672302093553
 31
0.0
  0
LINE
  5
18B
330
17
100
AcDbEntity
  8
0
100
AcDbLine
 10
11.79804118343502
 20
-41.97672302093553
 30
0.0
 11
12.10228793804303
 21
-42.00000000000001
 31
0.0
  0
LINE
  5
18C
330
17
100
AcDbEntity
  8
0
100
AcDbLine
 10
35.29999793803697
 20
-42.0
 30
0.0
 11
12.10228793804303
 21
-42.00000000000001
 31
0.0
  0
LINE
  5
18D
330
17
100
AcDbEntity
  8
0
100
AcDbLine
 10
35.29999793803697
 20
-42.0
 30
0.0
 11
35.49508824865738
 21
-41.98078528040323
 31
0.0
  0
LINE
  5
18E
330
17
100
AcDbEntity
  8
0
100
AcDbLine
 10
35.49508824865738
 20
-41.98078528040323
 30
0.0
 11
35.68268134804855
 21
-41.92387953251128
 31
0.0
  0
LINE
  5
18F
330
17
100
AcDbEntity
  8
0
100
AcDbLine
 10
35.68268134804855
 20
-41.92387953251128
 30
0.0
 11
35.8555681386043
 21
-41.83146961230255
 31
0.0
  0
LINE
  5
190
330
17
100
AcDbEntity
  8
0
100
AcDbLine
 10
35.8555681386043
 20
-41.83146961230255
 30
0.0
 11
36.00710467791961
 21
-41.70710678118655
 31
0.0
  0
LINE
  5
191
330
17
100
AcDbEntity
  8
0
100
AcDbLine
 10
36.00710467791961
 20
-41.70710678118655
 30
0.0
 11
36.13146750177126
 21
-41.5555702330196
 31
0.0
  0
LINE
  5
192
330
17
100
AcDbEntity
  8
0
100
AcDbLine
 10
36.13146750177126
 20
-41.5555702330196
 30
0.0
 11
36.2238774165821
 21
-41.38268343236509
 31
0.0
  0
LINE
  5
193
330
17
100
AcDbEntity
  8
0
100
AcDbLine
 10
36.2238774165821
 20
-41.38268343236509
 30
0.0
 11
36.28078316115003
 21
-41.19509032201612
 31
0.0
  0
LINE
  5
194
330
17
100
AcDbEntity
  8
0
100
AcDbLine
 10
36.28078316115003
 20
-41.19509032201612
 30
0.0
 11
36.2999978796244
 21
-41.0
 31
0.0
  0
LINE
  5
195
330
17
100
AcDbEntity
  8
0
100
AcDbLine
 10
36.2999978796244
 20
-22.99999999999999
 30
0.0
 11
36.2999978796244
 21
-41.0
 31
0.0
  0
LINE
  5
196
330
17
100
AcDbEntity
  8
0
100
AcDbLine
 10
36.3192125980988
 20
-22.80490967798386
 30
0.0
 11
36.2999978796244
 21
-22.99999999999999
 31
0.0
  0
LINE
  5
197
330
17
100
AcDbEntity
  8
0
100
AcDbLine
 10
36.37611834266674
 20
-22.6173165676349
 30
0.0
 11
36.3192125980988
 21
-22.80490967798386
 31
0.0
  0
LINE
  5
198
330
17
100
AcDbEntity
  8
0
100
AcDbLine
 10
36.46852825747758
 20
-22.44442976698039
 30
0.0
 11
36.37611834266674
 21
-22.6173165676349
 31
0.0
  0
LINE
  5
199
330
17
100
AcDbEntity
  8
0
100
AcDbLine
 10
36.59289108132923
 20
-22.29289321881344
 30
0.0
 11
36.46852825747758
 21
-22.44442976698039
 31
0.0
  0
LINE
  5
19A
330
17
100
AcDbEntity
  8
0
100
AcDbLine
 10
36.74442762064454
 20
-22.16853038769745
 30
0.0
 11
36.59289108132923
 21
-22.29289321881344
 31
0.0
  0
LINE
  5
19B
330
17
100
AcDbEntity
  8
0
100
AcDbLine
 10
36.91731441120029
 20
-22.0761204674887
 30
0.0
 11
36.74442762064454
 21
-22.16853038769745
 31
0.0
  0
LINE
  5
19C
330
17
100
AcDbEntity
  8
0
100
AcDbLine
 10
37.10490751059146
 20
-22.01921471959676
 30
0.0
 11
36.91731441120029
 21
-22.0761204674887
 31
0.0
  0
LINE
  5
19D
330
17
100
AcDbEntity
  8
0
100
AcDbLine
 10
37.29999782121186
 20
-21.99999999999999
 30
0.0
 11
37.10490751059146
 21
-22.01921471959676
 31
0.0
  0
LINE
  5
19E
330
17
100
AcDbEntity
  8
0
100
AcDbLine
 10
37.49999780952933
 20
-21.99999999999999
 30
0.0
 11
37.29999782121186
 21
-21.99999999999999
 31
0.0
  0
ENDSEC
  0
SECTION
  2
OBJECTS
  0
DICTIONARY
  5
A
330
0
100
AcDbDictionary
281
1
  3
ACAD_COLOR
350
B
  3
ACAD_GROUP
350
C
  3
ACAD_LAYOUT
350
D
  3
ACAD_MATERIAL
350
E
  3
ACAD_MLEADERSTYLE
350
F
  3
ACAD_MLINESTYLE
350
10
  3
ACAD_PLOTSETTINGS
350
11
  3
ACAD_PLOTSTYLENAME
350
12
  3
ACAD_SCALELIST
350
14
  3
ACAD_TABLESTYLE
350
15
  3
ACAD_VISUALSTYLE
350
16
  3
EZDXF_META
350
2D
  0
DICTIONARY
  5
B
330
A
100
AcDbDictionary
281
1
  0
DICTIONARY
  5
C
330
A
100
AcDbDictionary
281
1
  0
DICTIONARY
  5
D
330
A
100
AcDbDictionary
281
1
  3
Model
350
1A
  3
Layout1
350
1E
  0
DICTIONARY
  5
E
330
A
100
AcDbDictionary
281
1
  3
ByBlock
350
1F
  3
ByLayer
350
20
  3
Global
350
21
  0
DICTIONARY
  5
F
330
A
100
AcDbDictionary
281
1
  3
Standard
350
2C
  0
DICTIONARY
  5
10
330
A
100
AcDbDictionary
281
1
  3
Standard
350
22
  0
DICTIONARY
  5
11
330
A
100
AcDbDictionary
281
1
  0
ACDBDICTIONARYWDFLT
  5
12
330
A
100
AcDbDictionary
281
1
  3
Normal
350
13
100
AcDbDictionaryWithDefault
340
13
  0
ACDBPLACEHOLDER
  5
13
330
12
  0
DICTIONARY
  5
14
330
A
100
AcDbDictionary
281
1
  0
DICTIONARY
  5
15
330
A
100
AcDbDictionary
281
1
  0
DICTIONARY
  5
16
330
A
100
AcDbDictionary
281
1
  0
LAYOUT
  5
1A
330
D
100
AcDbPlotSettings
  1

  4
A3
  6

 40
7.5
 41
20.0
 42
7.5
 43
20.0
 44
420.0
 45
297.0
 46
0.0
 47
0.0
 48
0.0
 49
0.0
140
0.0
141
0.0
142
1.0
143
1.0
 70
1024
 72
1
 73
0
 74
5
  7

 75
16
 76
0
 77
2
 78
300
147
1.0
148
0.0
149
0.0
100
AcDbLayout
  1
Model
 70
1
 71
0
 10
0.0
 20
0.0
 11
420.0
 21
297.0
 12
0.0
 22
0.0
 32
0.0
 14
1e+20
 24
1e+20
 34
1e+20
 15
-1e+20
 25
-1e+20
 35
-1e+20
146
0.0
 13
0.0
 23
0.0
 33
0.0
 16
1.0
 26
0.0
 36
0.0
 17
0.0
 27
1.0
 37
0.0
 76
1
330
17
  0
LAYOUT
  5
1E
330
D
100
AcDbPlotSettings
  1

  4
A3
  6

 40
7.5
 41
20.0
 42
7.5
 43
20.0
 44
420.0
 45
297.0
 46
0.0
 47
0.0
 48
0.0
 49
0.0
140
0.0
141
0.0
142
1.0
143
1.0
 70
0
 72
1
 73
0
 74
5
  7

 75
16
 76
0
 77
2
 78
300
147
1.0
148
0.0
149
0.0
100
AcDbLayout
  1
Layout1
 70
1
 71
1
 10
0.0
 20
0.0
 11
420.0
 21
297.0
 12
0.0
 22
0.0
 32
0.0
 14
1e+20
 24
1e+20
 34
1e+20
 15
-1e+20
 25
-1e+20
 35
-1e+20
146
0.0
 13
0.0
 23
0.0
 33
0.0
 16
1.0
 26
0.0
 36
0.0
 17
0.0
 27
1.0
 37
0.0
 76
1
330
1B
  0
MATERIAL
  5
1F
102
{ACAD_REACTORS
330
E
102
}
330
E
100
AcDbMaterial
  1
ByBlock
  2

 70
0
 40
1.0
 71
1
 41
1.0
 91
-1023410177
 42
1.0
 72
1
  3

 73
1
 74
1
 75
1
 44
0.5
 73
0
 45
1.0
 46
1.0
 77
1
  4

 78
1
 79
1
170
1
 48
1.0
171
1
  6

172
1
173
1
174
1
140
1.0
141
1.0
175
1
  7

176
1
177
1
178
1
143
1.0
179
1
  8

270
1
271
1
272
1
145
1.0
146
1.0
273
1
  9

274
1
275
1
276
1
 42
1.0
 72
1
  3

 73
1
 74
1
 75
1
 94
63
  0
MATERIAL
  5
20
102
{ACAD_REACTORS
330
E
102
}
330
E
100
AcDbMaterial
  1
ByLayer
  2

 70
0
 40
1.0
 71
1
 41
1.0
 91
-1023410177
 42
1.0
 72
1
  3

 73
1
 74
1
 75
1
 44
0.5
 73
0
 45
1.0
 46
1.0
 77
1
  4

 78
1
 79
1
170
1
 48
1.0
171
1
  6

172
1
173
1
174
1
140
1.0
141
1.0
175
1
  7

176
1
177
1
178
1
143
1.0
179
1
  8

270
1
271
1
272
1
145
1.0
146
1.0
273
1
  9

274
1
275
1
276
1
 42
1.0
 72
1
  3

 73
1
 74
1
 75
1
 94
63
  0
MATERIAL
  5
21
102
{ACAD_REACTORS
330
E
102
}
330
E
100
AcDbMaterial
  1
Global
  2

 70
0
 40
1.0
 71
1
 41
1.0
 91
-1023410177
 42
1.0
 72
1
  3

 73
1
 74
1
 75
1
 44
0.5
 73
0
 45
1.0
 46
1.0
 77
1
  4

 78
1
 79
1
170
1
 48
1.0
171
1
  6

172
1
173
1
174
1
140
1.0
141
1.0
175
1
  7

176
1
177
1
178
1
143
1.0
179
1
  8

270
1
271
1
272
1
145
1.0
146
1.0
273
1
  9

274
1
275
1
276
1
 42
1.0
 72
1
  3

 73
1
 74
1
 75
1
 94
63
  0
MLINESTYLE
  5
22
102
{ACAD_REACTORS
330
10
102
}
330
10
100
AcDbMlineStyle
  2
Standard
 70
0
  3

 62
256
 51
90.0
 52
90.0
 71
2
 49
0.5
 62
256
  6
BYLAYER
 49
-0.5
 62
256
  6
BYLAYER
  0
MLEADERSTYLE
  5
2C
102
{ACAD_REACTORS
330
F
102
}
330
F
100
AcDbMLeaderStyle
179
2
170
2
171
1
172
0
 90
2
 40
0.0
 41
0.0
173
1
 91
-1056964608
 92
-2
290
1
 42
2.0
291
1
 43
8.0
  3
Standard
 44
4.0
300

342
29
174
1
175
1
176
0
178
1
 93
-1056964608
 45
4.0
292
0
297
0
 46
4.0
 94
-1056964608
 47
1.0
 49
1.0
140
1.0
294
1
141
0.0
177
0
142
1.0
295
0
296
0
143
3.75
271
0
272
9
273
9
  0
DICTIONARY
  5
2D
330
A
100
AcDbDictionary
280
1
281
1
  3
CREATED_BY_EZDXF
350
2E
  3
WRITTEN_BY_EZDXF
350
1A1
  0
DICTIONARYVAR
  5
2E
330
2D
100
DictionaryVariables
280
0
  1
0.0 @ 2000-01-01T00:00:00.000000+00:00
  0
DICTIONARYVAR
  5
1A1
330
2D
100
DictionaryVariables
280
0
  1
0.0 @ 2000-01-01T00:00:00.000000+00:00
  0
ENDSEC
  0
EOF
